<?xml version="1.0" standalone="no"?>
<!DOCTYPE svg PUBLIC "-//W3C//DTD SVG 1.1//EN" "http://www.w3.org/Graphics/SVG/1.1/DTD/svg11.dtd" >
<svg>
<metadata>
Created by FontForge 20090914 at Sat Jul 23 05:39:28 2022
 By www-data
Copyright (c) 2012, Eduardo Tunni (http://www.tipo.net.ar), with Reserved Font Name "Belleza"
</metadata>
<defs>
<font id="Belleza-Regular" horiz-adv-x="500" >
  <font-face 
    font-family="Belleza"
    font-weight="400"
    font-stretch="normal"
    units-per-em="1000"
    panose-1="2 0 5 3 5 0 0 2 0 3"
    ascent="800"
    descent="-200"
    x-height="452"
    cap-height="662"
    bbox="-82 -224 1109 928"
    underline-thickness="50"
    underline-position="-50"
    unicode-range="U+0020-U+FB02"
  />
<missing-glyph horiz-adv-x="250" 
 />
    <glyph glyph-name="fi" unicode="fi" horiz-adv-x="566" 
d="M308 452l-0.000976562 -36.002h-121v-416h-84v416l-82 16v20h83c4 70.667 22.833 128.334 56.5 173.001s79.167 67 136.5 67c18.667 0 44 -4 76 -12l-10 -65c-14.667 8 -33.5 15 -56.5 21s-40.5 9 -52.5 9c-22.667 -11.333 -39.167 -36.666 -49.5 -75.999
s-16.166 -78.333 -17.499 -117h121zM407.999 -0.00195312v452h83v-452h-83zM412.499 627.998c9.66699 10 21.668 15.001 36.001 15.001s26.666 -5 36.999 -15s15.5 -22 15.5 -36s-5.16699 -26.333 -15.5 -37s-22.5 -16 -36.5 -16s-26 5.16699 -36 15.5
s-15 22.666 -15 36.999s4.83301 26.5 14.5 36.5z" />
    <glyph glyph-name="fl" unicode="fl" horiz-adv-x="532" 
d="M457 0l-84.001 -0.00195312v625c-37.333 13.333 -77 20 -119 20c-22.667 -11.333 -39.167 -36.666 -49.5 -75.999s-16.166 -78.333 -17.499 -117h121v-36h-121v-416h-84v416l-82 16v20h83c4 70.667 22.833 128.334 56.5 173.001s79.167 67 136.5 67
c28.667 0 54 -7.33301 76 -22l84 13v-683z" />
    <glyph glyph-name=".notdef" horiz-adv-x="250" 
 />
    <glyph glyph-name=".notdef" horiz-adv-x="250" 
 />
    <glyph glyph-name="space" unicode=" " horiz-adv-x="250" 
 />
    <glyph glyph-name="exclam" unicode="!" horiz-adv-x="333" 
d="M165 158l-30 495h95l-30 -495h-35zM220 4c-11.333 -8.66699 -23.833 -12.9961 -37.5 -12.9961s-26.167 4.16699 -37.5 12.5s-17 20.666 -17 36.999s5.33301 29.666 16 39.999s23.5 15.5 38.5 15.5s27.833 -5.33301 38.5 -16s16 -23.834 16 -39.501
s-5.66699 -27.834 -17 -36.501z" />
    <glyph glyph-name="quotedbl" unicode="&#x22;" horiz-adv-x="350" 
d="M50 677h81v-70l-29 -176h-24l-28 176v70zM219 677h81v-70l-29 -176h-24l-28 176v70z" />
    <glyph glyph-name="numbersign" unicode="#" 
d="M471 271v-55h-109l-31 -216h-58l31 216h-134l-33 -216h-58l33 216h-107v55h116l21 134h-110v55h118l31 202h58l-31 -202h133l30 202h58l-30 -202h97v-55h-105l-20 -134h100zM333 405h-133l-21 -134h134z" />
    <glyph glyph-name="dollar" unicode="$" 
d="M264 733l0.00195312 -64c58 0 114 -11 168 -33l-10 -66c-58.667 34.667 -111.334 55 -158.001 61v-234c4.66699 -3.33301 15.167 -10.166 31.5 -20.499l33.5 -21.5c6 -4 15.833 -11 29.5 -21s23.5 -18.333 29.5 -25l23 -26.5c9.33301 -11 16.333 -21.167 21 -30.5
c10.667 -24.667 16 -49.334 16 -74.001c0 -50 -15.833 -91.667 -47.5 -125s-77.167 -52.333 -136.5 -57v-83h-34v81c-57.333 0.666992 -114.666 13.667 -171.999 39v47c20.667 -12 47.667 -23.5 81 -34.5s63.666 -16.5 90.999 -16.5v272
c-68.667 40.667 -113 74.667 -133 102c-23.333 32 -35 68.167 -35 108.5s13.667 75.833 41 106.5s69.666 47.667 126.999 51v64h34zM153.002 531c0 -38 25.667 -74.999 77 -110.999v207c-25.333 -6 -44.5 -18.333 -57.5 -37s-19.5 -38.334 -19.5 -59.001zM331.002 76.501
c16 21.667 24 47.001 24 76.001s-7.83301 52.667 -23.5 71s-38.167 37.166 -67.5 56.499v-247c28.667 7.33301 51 21.833 67 43.5z" />
    <glyph glyph-name="percent" unicode="%" horiz-adv-x="799" 
d="M90 633c33.333 34 70.001 51 110.001 51s73 -16.667 99 -50s39 -82 39 -146s-16.5 -112.833 -49.5 -146.5s-69.833 -50.5 -110.5 -50.5s-73.834 16.333 -99.501 49s-38.5 81.167 -38.5 145.5s16.667 113.5 50 147.5zM242.001 592.5c-15.333 30.333 -34.5 45.5 -57.5 45.5
s-41.167 -13.667 -54.5 -41s-20 -63.166 -20 -107.499s7.5 -81.333 22.5 -111s33.167 -44.5 54.5 -44.5c52 0 78 50.333 78 151c0 41.333 -7.66699 77.166 -23 107.499zM511.001 332c33.333 34 70.001 51 110.001 51s73 -16.667 99 -50s39 -82 39 -146
s-16.5 -112.833 -49.5 -146.5s-69.833 -50.5 -110.5 -50.5s-73.834 16.333 -99.501 49s-38.5 81.167 -38.5 145.5s16.667 113.5 50 147.5zM663.002 291.5c-15.333 30.333 -34.5 45.5 -57.5 45.5s-41.167 -13.667 -54.5 -41s-20 -63.166 -20 -107.499s7.5 -81.333 22.5 -111
s33.167 -44.5 54.5 -44.5c52 0 78 50.333 78 151c0 41.333 -7.66699 77.166 -23 107.499zM599.002 677l-350 -691h-49l353 691h46z" />
    <glyph glyph-name="ampersand" unicode="&#x26;" horiz-adv-x="778" 
d="M250 -13c-46.667 0 -91.333 12.3311 -134 36.998c-22 12.667 -39.833 31.5 -53.5 56.5s-20.5 54.167 -20.5 87.5c0 44 16.833 82.5 50.5 115.5s84.834 55.167 153.501 66.5c-25.333 56.667 -38 108.667 -38 156c0 28.667 8.66699 61.334 26 98.001c10 20.667 27 38 51 52
s48.667 21 74 21s52.333 -2.66699 81 -8s50.334 -11.333 65.001 -18l-10 -63c-42.667 32 -95.334 48 -158.001 48c-32 -20.667 -48 -57.667 -48 -111s16.333 -114.333 49 -183s76.667 -130.667 132 -186c23.333 38 47.333 96 72 174c-17.333 0 -29.666 0.333008 -36.999 1
v31c67.333 2 124 9.33301 170 22l-17 -50c-12 -2 -35 -3.66699 -69 -5c-26.667 -81.333 -57.334 -147.666 -92.001 -198.999c76 -66 154 -99 234 -99l-43 -31c-78.667 0 -155.334 27 -230.001 81c-58 -62.667 -127.333 -94 -208 -94zM279.001 33.998
c58 0 108.668 22.668 152.001 68.001c-71.333 58.667 -128.333 130.667 -171 216c-45.333 -12.667 -78.5 -32.834 -99.5 -60.501s-31.5 -57.5 -31.5 -89.5c0 -46 14.167 -79.833 42.5 -101.5s64.166 -32.5 107.499 -32.5z" />
    <glyph glyph-name="quotesingle" unicode="'" horiz-adv-x="181" 
d="M50 677h81v-70l-29 -176h-24l-28 176v70z" />
    <glyph glyph-name="parenleft" unicode="(" horiz-adv-x="333" 
d="M126 251c0 -78.667 7.16699 -145 21.5 -199s31.666 -95.167 51.999 -123.5s48.5 -57.5 84.5 -87.5l-2 -17c-156 88 -234 230.333 -234 427s78 338.667 234 426l2 -16c-36 -30.667 -64.167 -60 -84.5 -88s-37.666 -69 -51.999 -123s-21.5 -120.333 -21.5 -199z" />
    <glyph glyph-name="parenright" unicode=")" horiz-adv-x="333" 
d="M207 249c0 78.667 -7.16699 145 -21.5 199s-31.666 95.167 -51.999 123.5s-48.5 57.5 -84.5 87.5l2 17c156 -88 234 -230.5 234 -427.5s-78 -338.833 -234 -425.5l-2 16c36 30.667 64.167 60 84.5 88s37.666 69 51.999 123s21.5 120.333 21.5 199z" />
    <glyph glyph-name="asterisk" unicode="*" horiz-adv-x="507" 
d="M300 292h-80v60l22 93l-70 -65l-52 -30l-40 69l52 30l91 28l-91 28l-52 30l40 69l52 -30l69 -65l-21 93v60h80v-60l-22 -93l70 65l52 30l40 -69l-52 -30l-91 -28l91 -28l52 -30l-40 -69l-52 30l-70 65l22 -93v-60z" />
    <glyph glyph-name="plus" unicode="+" horiz-adv-x="564" 
d="M253 282v195h58v-195h194v-58h-194v-195h-58v195h-194v58h194z" />
    <glyph glyph-name="comma" unicode="," horiz-adv-x="235" 
d="M175 28c0 -72 -37.333 -128.667 -112 -170l-12 19c44.667 35.333 67 75 67 119c-15.333 0 -29.5 5 -42.5 15s-19.5 23.333 -19.5 40c9.33301 14 24.333 26.5 45 37.5s40.667 17.5 60 19.5c9.33301 -27.333 14 -54 14 -80z" />
    <glyph glyph-name="hyphen" unicode="-" horiz-adv-x="333" 
d="M39 257h246v-63h-246v63z" />
    <glyph glyph-name="period" unicode="." horiz-adv-x="250" 
d="M70 44c0 15.333 5.33301 28.5 16 39.5s23.667 16.5 39 16.5s28.5 -5.5 39.5 -16.5s16.5 -24.167 16.5 -39.5s-5.5 -28.333 -16.5 -39s-24.167 -16 -39.5 -16s-28.333 5.33301 -39 16s-16 23.667 -16 39z" />
    <glyph glyph-name="slash" unicode="/" horiz-adv-x="278" 
d="M287 677l-228 -691h-68l229 691h67z" />
    <glyph glyph-name="zero" unicode="0" 
d="M414.5 504.5c38.333 -48.333 57.5 -116.168 57.5 -203.501c0 -56 -7.66699 -105.167 -23 -147.5s-35.333 -74.833 -60 -97.5c-48 -45.333 -101.333 -68 -160 -68s-107.167 25 -145.5 75s-57.5 118.667 -57.5 206c0 56 7.66699 104.833 23 146.5s35.333 73.834 60 96.501
c48 43.333 101.333 65 160 65s107.167 -24.167 145.5 -72.5zM340 455.498c-26 47 -58.833 70.501 -98.5 70.501s-70.834 -21.333 -93.501 -64s-34 -100.334 -34 -173.001s12.833 -133.167 38.5 -181.5s56.834 -72.5 93.501 -72.5c88.667 0 133 82.667 133 248
c0 68 -13 125.5 -39 172.5z" />
    <glyph glyph-name="one" unicode="1" 
d="M298 580v-527l142 10v-63h-369v63l142 -10v437l-134 -69l-34 58l249 101h4z" />
    <glyph glyph-name="two" unicode="2" 
d="M431 408c0 -34 -17.6689 -75.334 -53.002 -124.001c-60.667 -83.333 -140 -158.666 -238 -225.999v-6l304 15v-67h-388v48c68.667 42 133.834 98.5 195.501 169.5s92.5 134.333 92.5 190s-27.333 94.5 -82 116.5c-47.333 0 -101.666 -9.33301 -162.999 -28l-20 63
c45.333 14 93 21 143 21c74.667 0 128.167 -16.5 160.5 -49.5s48.5 -73.833 48.5 -122.5z" />
    <glyph glyph-name="three" unicode="3" 
d="M357 -55.5c-48.667 -35 -102.003 -52.5 -160.003 -52.5s-117 9.66699 -177 29l20 64c55.333 -26.667 102 -43.667 140 -51c42.667 0 78.834 13.333 108.501 40s44.5 62.334 44.5 107.001s-17.333 81.5 -52 110.5s-88.667 43.5 -162 43.5l-1 27c124.667 8 187 56 187 144
c0 56.667 -29.667 96 -89 118c-41.333 0 -92.666 -9.33301 -153.999 -28l-20 63c46.667 14 91.334 21 134.001 21c64.667 0 117.5 -15 158.5 -45s61.5 -71.333 61.5 -124c0 -34 -12.5 -64.833 -37.5 -92.5s-58.833 -48.834 -101.5 -63.501c56 -11.333 98.833 -32 128.5 -62
s44.5 -63.667 44.5 -101c0 -63.333 -24.333 -112.5 -73 -147.5z" />
    <glyph glyph-name="four" unicode="4" 
d="M484 132v-63h-114v-169h-84v169h-287v43l287 450h84v-430h114zM286 132v367l-229 -367h229z" />
    <glyph glyph-name="five" unicode="5" 
d="M20 -84l20 64c43.333 -20.667 90 -36 140 -46c42.667 0 78.334 11.667 107.001 35s43 57.333 43 102s-18.833 83.334 -56.5 116.001s-97.167 49 -178.5 49h-30l16 326h331l-10 -67l-243 15l-12 -249c92 -4 161.5 -23.667 208.5 -59s70.5 -78.333 70.5 -129
c0 -32.667 -7.83301 -61.334 -23.5 -86.001s-35.834 -43.667 -60.501 -57c-48.667 -25.333 -102 -38 -160 -38s-112 8 -162 24z" />
    <glyph glyph-name="six" unicode="6" 
d="M135 314c34.667 45.333 80.5 68 137.5 68s102.333 -17.5 136 -52.5s50.5 -81.167 50.5 -138.5c0 -36.667 -6.33301 -68.667 -19 -96s-29.667 -48.333 -51 -63c-41.333 -29.333 -88.333 -44 -141 -44c-66.667 0 -118 28.833 -154 86.5s-54 130.834 -54 219.501
c0 115.333 28.833 207.666 86.5 276.999s121.167 104 190.5 104c34.667 0 75.334 -6.66699 122.001 -20l-20 -64c-61.333 19.333 -109.333 29 -144 29c-41.333 -16 -75.333 -52.5 -102 -109.5s-41.334 -122.5 -44.001 -196.5h6zM161.5 104.5
c21.667 -48.333 49.5 -72.499 83.5 -72.499s62.333 15 85 45s34 66.667 34 110c0 85.333 -35.667 135 -107 149c-23.333 -2.66699 -45.5 -8.83398 -66.5 -18.501s-36.5 -19 -46.5 -28s-15 -15.167 -15 -18.5c0 -62.667 10.833 -118.167 32.5 -166.5z" />
    <glyph glyph-name="seven" unicode="7" 
d="M449 562v-46l-260 -624l-80 33l271 588l-329 -18l-10 67h408z" />
    <glyph glyph-name="eight" unicode="8" 
d="M164.5 247.5c-15 -27.667 -22.501 -58.168 -22.501 -91.501s11.333 -62.333 34 -87s49 -37 79 -37s54.833 9.33301 74.5 28s29.5 43.334 29.5 74.001s-9.16699 56.834 -27.5 78.501s-57.166 55.5 -116.499 101.5c-18.667 -16.667 -35.5 -38.834 -50.5 -66.501z
M55.999 147.999c0 21.333 2.16895 39.668 6.50195 55.001s13.166 30.833 26.499 46.5s25.833 28.334 37.5 38.001s31.5 25.167 59.5 46.5c-34.667 30.667 -58.667 52.667 -72 66s-25.333 30.666 -36 51.999s-16 45 -16 71c0 47.333 19.167 84.5 57.5 111.5
s83.166 40.5 134.499 40.5s92.5 -13.167 123.5 -39.5s46.5 -59.5 46.5 -99.5c0 -44 -16 -79.333 -48 -106c-22 -18.667 -50.667 -37.667 -86 -57c62 -44.667 103.333 -83.334 124 -116.001s31 -67.667 31 -105c0 -28 -6 -52.167 -18 -72.5s-25 -36.5 -39 -48.5
s-33.333 -22.167 -58 -30.5s-52.667 -12.5 -84 -12.5c-58.667 0 -105 16.167 -139 48.5s-51 69.5 -51 111.5zM145.001 548.001c0 -54 37.668 -107.335 113.001 -160.002c22 16 41.833 37.333 59.5 64s26.5 54.334 26.5 83.001s-10 52 -30 70s-43.833 27 -71.5 27
s-50.834 -8.16699 -69.501 -24.5s-28 -36.166 -28 -59.499z" />
    <glyph glyph-name="nine" unicode="9" 
d="M357 254c-34.667 -45.333 -80.5 -68 -137.5 -68s-102.333 17.5 -136 52.5s-50.5 81.167 -50.5 138.5c0 36.667 6.33301 68.667 19 96s29.667 48.333 51 63c41.333 29.333 88.333 44 141 44c66.667 0 118 -28.833 154 -86.5s54 -130.834 54 -219.501
c0 -115.333 -28.833 -207.666 -86.5 -276.999s-121.167 -104 -190.5 -104c-40 0 -84 7.66699 -132 23l20 64c67.333 -21.333 118.666 -32 153.999 -32c41.333 16 75.333 52.5 102 109.5s41.334 122.5 44.001 196.5h-6zM330.5 463.5
c-21.667 48.333 -49.5 72.499 -83.5 72.499s-62.333 -15 -85 -45s-34 -66.667 -34 -110c0 -85.333 35.667 -135 107 -149c23.333 2.66699 45.5 8.83398 66.5 18.501s36.5 19 46.5 28s15 15.167 15 18.5c0 62.667 -10.833 118.167 -32.5 166.5z" />
    <glyph glyph-name="colon" unicode=":" horiz-adv-x="211" 
d="M50 44c0 15.333 5.33301 28.5 16 39.5s23.667 16.5 39 16.5s28.5 -5.5 39.5 -16.5s16.5 -24.167 16.5 -39.5s-5.5 -28.333 -16.5 -39s-24.167 -16 -39.5 -16s-28.333 5.33301 -39 16s-16 23.667 -16 39zM50 403c0 15.333 5.33301 28.5 16 39.5s23.667 16.5 39 16.5
s28.5 -5.5 39.5 -16.5s16.5 -24.167 16.5 -39.5s-5.5 -28.333 -16.5 -39s-24.167 -16 -39.5 -16s-28.333 5.33301 -39 16s-16 23.667 -16 39z" />
    <glyph glyph-name="semicolon" unicode=";" horiz-adv-x="211" 
d="M169 28c0 -72 -37.333 -128.667 -112 -170l-12 19c44.667 35.333 67 75 67 119c-15.333 0 -29.5 5 -42.5 15s-19.5 23.333 -19.5 40c9.33301 14 24.333 26.5 45 37.5s40.667 17.5 60 19.5c9.33301 -27.333 14 -54 14 -80zM50 403c0 15.333 5.33301 28.5 16 39.5
s23.667 16.5 39 16.5s28.5 -5.5 39.5 -16.5s16.5 -24.167 16.5 -39.5s-5.5 -28.333 -16.5 -39s-24.167 -16 -39.5 -16s-28.333 5.33301 -39 16s-16 23.667 -16 39z" />
    <glyph glyph-name="less" unicode="&#x3c;" horiz-adv-x="564" 
d="M507 82v-60l-450 204v54l450 204v-60l-377 -171z" />
    <glyph glyph-name="equal" unicode="=" horiz-adv-x="564" 
d="M505 371v-59h-446v59h446zM505 194v-59h-446v59h446z" />
    <glyph glyph-name="greater" unicode="&#x3e;" horiz-adv-x="564" 
d="M57 82l377 171l-377 171v60l450 -204v-54l-450 -204v60z" />
    <glyph glyph-name="question" unicode="?" horiz-adv-x="444" 
d="M172 82.5c10.667 10.333 23.499 15.502 38.499 15.502s27.833 -5.33301 38.5 -16s16 -23.834 16 -39.501s-5.66699 -28 -17 -37s-23.666 -13.5 -36.999 -13.5s-25.833 4.33301 -37.5 13s-17.5 21.167 -17.5 37.5s5.33301 29.666 16 39.999zM206.999 655.002
c74.667 0 128.167 -16.501 160.5 -49.501s48.5 -72.333 48.5 -118s-19.5 -97.667 -58.5 -156s-86.167 -115.5 -141.5 -171.5l-29 23c43.333 46.667 78.5 96.167 105.5 148.5s40.5 99.833 40.5 142.5c0 60.667 -28.667 102.334 -86 125.001c-45.333 0 -93 -7.33301 -143 -22
v63c38.667 10 73 15 103 15z" />
    <glyph glyph-name="at" unicode="@" horiz-adv-x="971" 
d="M711 49c-18 -6 -36.998 -8.99805 -56.998 -8.99805s-38.667 8.83301 -56 26.5s-27 39.5 -29 65.5h-4c-13.333 -27.333 -30.833 -48.666 -52.5 -63.999s-43.834 -23 -66.501 -23c-40.667 0 -72 17.167 -94 51.5s-33 78.666 -33 132.999s16.167 106.666 48.5 156.999
s77.166 75.5 134.499 75.5c34 0 69.667 -13.667 107 -41l35 33h32l-46 -284c-1.33301 -10.667 -2 -18.667 -2 -24c0 -43.333 19 -65 57 -65c32 0 64.667 20.667 98 62s50 101.666 50 180.999s-33.5 149.666 -100.5 210.999s-145.333 92 -235 92
s-166.834 -35.5 -231.501 -106.5s-97 -157.167 -97 -258.5s32.333 -187.5 97 -258.5s144 -106.5 238 -106.5c65.333 0 126.333 18.667 183 56l27 -37c-61.333 -35.333 -134.333 -53 -219 -53c-114.667 0 -212.667 38.833 -294 116.5s-122 171.5 -122 281.5
s40.667 203.833 122 281.5s176.833 116.5 286.5 116.5s201.167 -34.333 274.5 -103s110 -148.334 110 -239.001c0 -38.667 -5 -74.167 -15 -106.5s-22.667 -58.666 -38 -78.999s-32.666 -37.666 -51.999 -51.999s-38 -24.5 -56 -30.5zM505.002 412.002
c-28.667 0 -53.833 -16.833 -75.5 -50.5s-32.5 -76.834 -32.5 -129.501c0 -78 21.333 -123 64 -135c18 1.33301 38.833 11.333 62.5 30s36.5 33.334 38.5 44.001l35 212c-24 19.333 -54.667 29 -92 29z" />
    <glyph glyph-name="A" unicode="A" horiz-adv-x="629" 
d="M10 0l297 678h15l297 -678h-109l-75 180h-297l-74 -180h-54zM153 218h266l-132 324z" />
    <glyph glyph-name="B" unicode="B" horiz-adv-x="644" 
d="M90 0v662h189c76.667 0 137.667 -13 183 -39s68 -65 68 -117c0 -36.667 -12.833 -68.5 -38.5 -95.5s-61.5 -47.5 -107.5 -61.5c60.667 -11.333 106.5 -31.833 137.5 -61.5s46.5 -62.167 46.5 -97.5s-9 -65.5 -27 -90.5s-41 -44.167 -69 -57.5
c-56.667 -28 -114.667 -42 -174 -42h-208zM187 359l71.999 0.00195312c60.667 0 104.167 13.5 130.5 40.5s39.5 60.833 39.5 101.5c0 27.333 -9.16699 52.166 -27.5 74.499s-46.5 39.166 -84.5 50.499c-45.333 0 -88.666 -6.66699 -129.999 -20v-247zM186.999 330.002
l-0.000976562 -285c21.333 -6.66699 54.333 -10 99 -10s84.334 12.333 119.001 37s52 59 52 103s-19 80.833 -57 110.5s-83.667 44.5 -137 44.5h-76z" />
    <glyph glyph-name="C" unicode="C" horiz-adv-x="632" 
d="M395 -12c-103.333 0 -190.334 28 -261.001 84s-106 136.333 -106 241c0 61.333 11.667 116 35 164s54 85.667 92 113c76.667 56 162.667 84 258 84c55.333 0 113 -10 173 -30l-10 -68c-31.333 13.333 -55.666 23.333 -72.999 30c-50 18 -100.333 27 -151 27
c-70 -16 -123.833 -50.667 -161.5 -104s-56.5 -120 -56.5 -200c0 -98 25.667 -173.5 77 -226.5s119 -79.5 203 -79.5s146.667 18 188 54v-55c-57.333 -22.667 -126.333 -34 -207 -34z" />
    <glyph glyph-name="D" unicode="D" horiz-adv-x="708" 
d="M90 0l0.00195312 662h189c78.667 0 149.667 -16.667 213 -50c34 -17.333 63.667 -39 89 -65s45.666 -59.167 60.999 -99.5s23 -85.166 23 -134.499c0 -70.667 -17.667 -130.334 -53 -179.001c-64.667 -89.333 -169.334 -134 -314.001 -134h-208zM278.002 34
c84.667 0 152.668 25 204.001 75s77 123.333 77 220c0 74.667 -20.333 138.5 -61 191.5s-93.334 88.167 -158.001 105.5c-58 0 -108.667 -7 -152 -21v-562c21.333 -6 51.333 -9 90 -9z" />
    <glyph glyph-name="E" unicode="E" horiz-adv-x="562" 
d="M90 0v662h401l-10 -67l-186 31c-32.667 0 -68.667 -5.66699 -108 -17v-243h222v-38h-222v-292l310 31l-10 -67h-397z" />
    <glyph glyph-name="F" unicode="F" horiz-adv-x="481" 
d="M187 366h211.999v-38h-212v-328h-97v662h391v-67l-185 31c-33.333 0 -69.666 -5.66699 -108.999 -17v-243z" />
    <glyph glyph-name="G" unicode="G" horiz-adv-x="680" 
d="M509 285l97.002 0.00195312v-263c-57.333 -22.667 -126.333 -34 -207 -34c-98 0 -182.333 26 -253 78c-34.667 26 -62.334 60.167 -83.001 102.5s-31 89.166 -31 140.499s8 97.5 24 138.5s36.833 75.167 62.5 102.5s55.5 50.666 89.5 69.999c63.333 36 133 54 209 54
c29.333 0 61 -3.33301 95 -10s60 -13.667 78 -21l-10 -67c-90 38 -164.667 57 -224 57c-67.333 -17.333 -120.5 -53 -159.5 -107s-58.5 -120 -58.5 -198c0 -97.333 25.667 -172.5 77 -225.5s119 -79.5 203 -79.5c33.333 0 63.666 3.33301 90.999 10v252z" />
    <glyph glyph-name="H" unicode="H" horiz-adv-x="677" 
d="M187 328v-328h-97v662h97v-296h303v296h97v-662h-97v328h-303z" />
    <glyph glyph-name="I" unicode="I" horiz-adv-x="272" 
d="M182 662v-662h-92v662h92z" />
    <glyph glyph-name="J" unicode="J" horiz-adv-x="389" 
d="M179 41l-0.000976562 621h99v-621c0 -73.333 -22.5 -135.833 -67.5 -187.5s-99.5 -77.5 -163.5 -77.5c-34 0 -67.333 4.66699 -100 14l10 78c18 -12 41 -22.5 69 -31.5s52 -13.5 72 -13.5c22.667 14 41.834 41.833 57.501 83.5s23.5 86.5 23.5 134.5z" />
    <glyph glyph-name="K" unicode="K" horiz-adv-x="609" 
d="M192 0h-102v662h102v-326l309 326h66l-313 -308l355 -354l-128 -13l-289 339v-326z" />
    <glyph glyph-name="L" unicode="L" horiz-adv-x="487" 
d="M90 0l-0.000976562 662h98v-608c40.667 -12 73.334 -18 98.001 -18l181 31l-12 -67h-365z" />
    <glyph glyph-name="M" unicode="M" horiz-adv-x="889" 
d="M443 157l221 505h102l37 -662h-102l-27 569h-4l-252 -569h-14l-247 546h-4l-27 -546h-44l37 662h93z" />
    <glyph glyph-name="N" unicode="N" horiz-adv-x="683" 
d="M593 -11h-17l-438 548h-4v-537h-44v662h74l381 -481h4v481h44v-673z" />
    <glyph glyph-name="O" unicode="O" horiz-adv-x="725" 
d="M391 674c86.667 0 158.333 -28.5 215 -85.5s85 -136.167 85 -237.5c0 -65.333 -11.333 -122.5 -34 -171.5s-52.334 -86.833 -89.001 -113.5c-71.333 -52 -150 -78 -236 -78s-157.167 28.833 -213.5 86.5s-84.5 137.167 -84.5 238.5c0 52.667 7.5 100.167 22.5 142.5
s34.667 76.833 59 103.5s52.5 49 84.5 67c58.667 32 122.334 48 191.001 48zM259.999 45.5c29.333 -16.333 63.168 -24.501 101.501 -24.501s72.5 9.66699 102.5 29s53.333 44.666 70 75.999c34 62.667 51 130 51 202c0 88.667 -17.667 160 -53 214
c-39.333 60.667 -104.333 91 -195 91c-64.667 -22.667 -113.667 -61.667 -147 -117s-50 -118 -50 -188c0 -85.333 16.667 -156.666 50 -213.999c17.333 -29.333 40.666 -52.166 69.999 -68.499z" />
    <glyph glyph-name="P" unicode="P" horiz-adv-x="546" 
d="M535 490c0 -64 -23.5 -112.5 -70.5 -145.5s-110.833 -49.5 -191.5 -49.5h-86v-295h-97v662h215c67.333 0 122.5 -15.333 165.5 -46s64.5 -72.667 64.5 -126zM187 324l89.001 0.00195312c31.333 0 58.166 6 80.499 18s38.5 27.333 48.5 46c18 33.333 27 65.666 27 96.999
c0 15.333 -4 33.666 -12 54.999c-16 44 -49 72.667 -99 86c-48 0 -92.667 -5.66699 -134 -17v-285z" />
    <glyph glyph-name="Q" unicode="Q" horiz-adv-x="725" 
d="M391 674c86.667 0 158.332 -28.501 214.999 -85.501s85 -136.167 85 -237.5c0 -55.333 -8.16699 -104.833 -24.5 -148.5s-38.5 -79.167 -66.5 -106.5c-53.333 -53.333 -117 -86.666 -191 -99.999l164 -117l-83 -59l-148 168h-9c-86.667 0 -158.167 28.833 -214.5 86.5
s-84.5 137.167 -84.5 238.5c0 52.667 7.5 100.167 22.5 142.5s34.667 76.833 59 103.5s52.5 49 84.5 67c58.667 32 122.334 48 191.001 48zM259.998 45.499c29.333 -16.333 63.168 -24.501 101.501 -24.501s72.5 9.66699 102.5 29s53.333 44.666 70 75.999
c34 62.667 51 130 51 202c0 88.667 -17.667 160 -53 214c-39.333 60.667 -104.333 91 -195 91c-64.667 -22.667 -113.667 -61.667 -147 -117s-50 -118 -50 -188c0 -85.333 16.667 -156.666 50 -213.999c17.333 -29.333 40.666 -52.166 69.999 -68.499z" />
    <glyph glyph-name="R" unicode="R" horiz-adv-x="638" 
d="M188 316v-316h-98v662h216c67.333 0 122.5 -15 165.5 -45s64.5 -69.5 64.5 -118.5s-17.167 -87.667 -51.5 -116s-80.833 -47.833 -139.5 -58.5l268 -324l-116 -14l-232 330h-77zM188 346h64c120 0 180 47.333 180 142c0 16 -4 34 -12 54c-15.333 42 -48 69.667 -98 83
c-45.333 0 -90 -5.66699 -134 -17v-262z" />
    <glyph glyph-name="S" unicode="S" horiz-adv-x="556" 
d="M162 547c0 -29.333 11.5 -56.4951 34.5 -81.4951s51 -47 84 -66l98.5 -58c32.667 -19.667 60.5 -43.834 83.5 -72.501s34.5 -60.334 34.5 -95.001c0 -54.667 -20.167 -99.334 -60.5 -134.001s-94.833 -52 -163.5 -52s-136.667 13 -204 39v47
c68 -34 125.833 -51 173.5 -51s84.834 11.667 111.501 35s40 55.666 40 96.999c0 28 -11 53.5 -33 76.5s-48.667 43 -80 60l-94 52.5c-31.333 18 -58 40.833 -80 68.5s-33 61.167 -33 100.5s17.5 76 52.5 110s87.167 51 156.5 51c45.333 0 102.666 -10.333 171.999 -31
l-10 -68c-90 38.667 -167 58 -231 58c-34.667 -16.667 -52 -45.334 -52 -86.001z" />
    <glyph glyph-name="T" unicode="T" horiz-adv-x="535" 
d="M316 0h-96.998v614c-22.667 5.33301 -45.334 8 -68.001 8l-135 -31l-6 71h515l-5 -71l-136 31c-22.667 0 -45.334 -2.66699 -68.001 -8v-614z" />
    <glyph glyph-name="U" unicode="U" horiz-adv-x="657" 
d="M582 662l-0.000976562 -405.999c0 -62 -6.66699 -108.667 -20 -140c-6 -14 -15.5 -29.833 -28.5 -47.5s-28.167 -31.834 -45.5 -42.501c-44 -25.333 -99 -38 -165 -38c-165.333 0 -248 85 -248 255v419h102v-427c0 -19.333 0.333008 -35 1 -47s4.16699 -29 10.5 -51
s15 -39.667 26 -53s28.333 -25.333 52 -36s51.834 -16 84.501 -16c124.667 0 187 66.667 187 200v430h44z" />
    <glyph glyph-name="V" unicode="V" horiz-adv-x="597" 
d="M307 -16l-297 678h109l220 -542l198 542h50l-264 -678h-16z" />
    <glyph glyph-name="W" unicode="W" horiz-adv-x="856" 
d="M796 662h50l-248 -677h-16l-153 410l-150 -410h-16l-253 677h109l176 -542l112 334l-78 208h109l176 -542z" />
    <glyph glyph-name="X" unicode="X" horiz-adv-x="646" 
d="M355 356l261 -356h-125l-188 292l-212 -292h-61l250 321l-238 341h125l166 -275l208 275h61z" />
    <glyph glyph-name="Y" unicode="Y" horiz-adv-x="557" 
d="M343 0h-97v246l-226 416h109l185 -380l173 380h50l-194 -411v-251z" />
    <glyph glyph-name="Z" unicode="Z" horiz-adv-x="571" 
d="M16 0l-0.000976562 10l382 599c-39.333 11.333 -75.666 17 -108.999 17l-206 -31l-10 67h468v-10l-394 -612l359 27l10 -67h-500z" />
    <glyph glyph-name="bracketleft" unicode="[" horiz-adv-x="333" 
d="M299 636l-135 -28v-710l135 -29v-25l-211 16v786l211 16v-26z" />
    <glyph glyph-name="backslash" unicode="\" horiz-adv-x="278" 
d="M-9 677h67l229 -691h-68z" />
    <glyph glyph-name="bracketright" unicode="]" horiz-adv-x="333" 
d="M34 -130l135 28v710l-135 29v25l211 -16v-786l-211 -16v26z" />
    <glyph glyph-name="asciicircum" unicode="^" horiz-adv-x="469" 
d="M92 297h-68l181 365h60l181 -365h-68l-143 289z" />
    <glyph glyph-name="underscore" unicode="_" 
d="M0 -75h500v-50h-500v50z" />
    <glyph glyph-name="grave" unicode="`" horiz-adv-x="333" 
d="M242 507h-40l-188 138l56 50z" />
    <glyph glyph-name="a" unicode="a" horiz-adv-x="444" 
d="M285 106l-0.000976562 103c-48 -3.33301 -87.333 -14 -118 -32s-46 -37.333 -46 -58s5.33301 -38.5 16 -53.5s24.334 -25.5 41.001 -31.5c22 4 45.333 15 70 33s37 31 37 39zM366.999 133c0 -47.333 17.334 -83.333 52.001 -108l-52 -38l-81 73
c-52.667 -48 -101.334 -72 -146.001 -72c-29.333 0 -54.5 9.33301 -75.5 28s-31.5 42.167 -31.5 70.5s8.5 51.833 25.5 70.5s39.5 33 67.5 43c48 18 101 29.333 159 34v94c0 55.333 -32 83 -96 83c-36.667 0 -80 -8 -130 -24l-9 25c13.333 10.667 36.5 22 69.5 34
s64.5 18 94.5 18s55.167 -4 75.5 -12s35.333 -17 45 -27s17.167 -23.667 22.5 -41s8.33301 -31 9 -41s1 -23.333 1 -40v-170z" />
    <glyph glyph-name="b" unicode="b" 
d="M153 389c42.667 48.667 89.499 73 140.499 73s92.667 -20.333 125 -61s48.5 -97.5 48.5 -170.5s-24.167 -131.833 -72.5 -176.5s-107.166 -67 -176.499 -67c-52 0 -101.667 13 -149 39v657h84v-294zM152.999 342v-286c34 -18 69.333 -27 106 -27s66.167 18 88.5 54
s33.5 80.667 33.5 134s-11 96 -33 128s-49.667 53.333 -83 64c-18 -1.33301 -36.167 -7 -54.5 -17s-32.5 -19.833 -42.5 -29.5s-15 -16.5 -15 -20.5z" />
    <glyph glyph-name="c" unicode="c" horiz-adv-x="406" 
d="M228 -12c-58 0 -106.167 19.833 -144.5 59.5s-57.5 95.834 -57.5 168.501s20.5 132.167 61.5 178.5s93.167 69.5 156.5 69.5c35.333 0 75 -8.66699 119 -26l-10 -66c-58.667 30.667 -109 46 -151 46c-34.667 -17.333 -59.667 -45.333 -75 -84s-23 -76.667 -23 -114
c0 -50.667 14.833 -92.834 44.5 -126.501s65.167 -50.5 106.5 -50.5s79.333 9 114 27v-35c-48 -31.333 -95 -47 -141 -47z" />
    <glyph glyph-name="d" unicode="d" 
d="M424 134c0 -46 17 -82.6699 51 -110.003l-51 -37l-82 73c-26.667 -25.333 -50.667 -43.666 -72 -54.999s-43.333 -17 -66 -17s-42.667 3.33301 -60 10s-35.5 17.834 -54.5 33.501s-34.333 40.334 -46 74.001s-17.5 77.167 -17.5 130.5s15.833 104.5 47.5 153.5
s75.167 73.5 130.5 73.5c41.333 0 86.333 -15.333 135 -46v266h85v-549zM339 100.997l0.000976562 279c-35.333 23.333 -67.666 35 -96.999 35c-38.667 0 -69.667 -18.167 -93 -54.5s-35 -81.833 -35 -136.5s8.5 -98.5 25.5 -131.5s38.167 -52.833 63.5 -59.5
c23.333 2 46.166 7.66699 68.499 17s39.166 18.833 50.499 28.5s17 17.167 17 22.5z" />
    <glyph glyph-name="e" unicode="e" horiz-adv-x="469" 
d="M105 246c0 -72 16.168 -123.834 48.501 -155.501s71.666 -47.5 117.999 -47.5s89.166 9 128.499 27v-35c-54.667 -31.333 -107 -47 -157 -47c-64.667 0 -117 19.667 -157 59s-60 96.333 -60 171s22.167 134.334 66.5 179.001s97.833 67 160.5 67
c48.667 0 89.334 -19.167 122.001 -57.5s49 -91.833 49 -160.5h-319zM202.001 416.999c-23.333 -11.333 -43.334 -29.5 -60.001 -54.5s-27.667 -53.833 -33 -86.5h234c-2 28 -8.5 52 -19.5 72s-24.167 34.667 -39.5 44c-27.333 16.667 -54.666 25 -81.999 25z" />
    <glyph glyph-name="f" unicode="f" horiz-adv-x="333" 
d="M308 452l-0.000976562 -36.002h-121v-416h-84v416l-82 16v20h83c4 70.667 22.833 128.334 56.5 173.001s79.167 67 136.5 67c18.667 0 44 -4 76 -12l-10 -65c-14.667 8 -33.5 15 -56.5 21s-40.5 9 -52.5 9c-22.667 -11.333 -39.167 -36.666 -49.5 -75.999
s-16.166 -78.333 -17.499 -117h121z" />
    <glyph glyph-name="g" unicode="g" horiz-adv-x="490" 
d="M160.5 64c19 -4.66699 55.499 -7.00098 109.499 -7.00098s97.333 -6 130 -18s49 -34.667 49 -68c0 -49.333 -24.167 -93.833 -72.5 -133.5s-107.5 -59.5 -177.5 -59.5c-50.667 0 -92.167 9.5 -124.5 28.5s-48.5 46.167 -48.5 81.5c0 50 27.333 87 82 111
c-30.667 11.333 -46 32.5 -46 63.5s24 64.833 72 101.5c-50 26 -75 68.5 -75 127.5s18.5 102.5 55.5 130.5s78.5 42 124.5 42c32.667 0 64 -9 94 -27l88 25l20 -43l-62 -31c12.667 -22 19 -47.667 19 -77s-5.83301 -55.166 -17.5 -77.499s-26.834 -39.5 -45.501 -51.5
c-37.333 -24 -77.666 -36 -120.999 -36c-6.66699 0 -16 0.666992 -28 2c-11.333 -3.33301 -23.166 -10.666 -35.499 -21.999s-18.5 -23.333 -18.5 -36s9.5 -21.334 28.5 -26.001zM291.499 392.499c-18.333 25.667 -41 38.499 -68 38.499s-48.5 -11.667 -64.5 -35
s-24 -53.5 -24 -90.5s9 -67.667 27 -92s39.667 -36.5 65 -36.5c61.333 0 92 41.667 92 125c0 34.667 -9.16699 64.834 -27.5 90.501zM214.999 -176.002c55.333 0 102.333 15.332 141 45.999s58 61.334 58 92.001c-34 14 -81.5 21 -142.5 21s-103.167 2 -126.5 6
c-29.333 -24.667 -44 -51 -44 -79c0 -57.333 38 -86 114 -86z" />
    <glyph glyph-name="h" unicode="h" horiz-adv-x="503" 
d="M314 462c30.667 0 58 -11.333 82 -34s36 -61.667 36 -117v-311h-84v301c0 32.667 -5.83301 57.167 -17.5 73.5s-34 24.5 -67 24.5s-67.5 -17.667 -103.5 -53v-346h-84v683h81v-295c52.667 49.333 105 74 157 74z" />
    <glyph glyph-name="i" unicode="i" horiz-adv-x="233" 
d="M75 0v452h83v-452h-83zM79.5 628c9.66699 10 21.668 15.001 36.001 15.001s26.666 -5 36.999 -15s15.5 -22 15.5 -36s-5.16699 -26.333 -15.5 -37s-22.5 -16 -36.5 -16s-26 5.16699 -36 15.5s-15 22.666 -15 36.999s4.83301 26.5 14.5 36.5z" />
    <glyph glyph-name="j" unicode="j" horiz-adv-x="235" 
d="M154 554c-10 -10 -22.167 -15 -36.5 -15s-26.5 5 -36.5 15s-15 22.333 -15 37s5 27 15 37s22.167 15 36.5 15s26.5 -5 36.5 -15s15 -22.333 15 -37s-5 -27 -15 -37zM75 452h85v-470c0 -69.333 -15.333 -120.833 -46 -154.5s-70.667 -50.5 -120 -50.5
c-22 0 -47.333 5 -76 15l8 39c22.667 -5.33301 44.667 -8 66 -8c30.667 0 52.167 11 64.5 33s18.5 47.667 18.5 77v519z" />
    <glyph glyph-name="k" unicode="k" horiz-adv-x="493" 
d="M159 0h-84v683h84v-423l231 192h66l-235 -178l250 -274l-100 -13l-212 264v-251z" />
    <glyph glyph-name="l" unicode="l" horiz-adv-x="234" 
d="M159 683v-683h-84v683h84z" />
    <glyph glyph-name="m" unicode="m" horiz-adv-x="778" 
d="M588 464c78.667 0 118.003 -59.667 118.003 -179v-285h-84v293c0 56 -10.667 90 -32 102c-10.667 6 -25.5 9 -44.5 9s-39.333 -5.83301 -61 -17.5s-37.5 -24.834 -47.5 -39.501v-347h-85v298c0 35.333 -5.33301 61.833 -16 79.5s-26.334 26.5 -47.001 26.5
s-40.5 -4.66699 -59.5 -14s-34.167 -18.666 -45.5 -27.999s-17 -15 -17 -17v-345h-84v314c0 45.333 -17 81.666 -51 108.999l51 38l80 -73c31.333 26 58.666 45.167 81.999 57.5s47.666 18.5 72.999 18.5c58 0 94 -27 108 -81c23.333 26.667 50 46.834 80 60.501
s57.333 20.5 82 20.5z" />
    <glyph glyph-name="n" unicode="n" 
d="M235.5 446c21 12 45.832 18.001 74.499 18.001s55.167 -11.333 79.5 -34s36.5 -61.667 36.5 -117v-313h-85v303c0 32.667 -5.83301 57.167 -17.5 73.5s-31.667 24.5 -60 24.5s-61.166 -18.667 -98.499 -56v-345h-85v314c0 45.333 -17 81.666 -51 108.999l51 38l82 -73
c28 26.667 52.5 46 73.5 58z" />
    <glyph glyph-name="o" unicode="o" 
d="M413.5 404c38.333 -40 57.498 -95 57.498 -165c0 -44.667 -7.66699 -84 -23 -118s-35.333 -60.333 -60 -79c-47.333 -36 -100.166 -54 -158.499 -54s-106.666 20 -144.999 60s-57.5 95 -57.5 165c0 44.667 7.5 84 22.5 118s34.833 60.333 59.5 79
c47.333 36 100.333 54 159 54s107.167 -20 145.5 -60zM247.998 22c29.333 0 54.333 11.333 75 34c37.333 40 56 93.167 56 159.5s-11.333 118 -34 155s-59.667 55.5 -111 55.5c-38 -14.667 -66.833 -40.5 -86.5 -77.5s-29.5 -81.667 -29.5 -134s10.667 -97.5 32 -135.5
s54 -57 98 -57z" />
    <glyph glyph-name="p" unicode="p" 
d="M233.5 446c21 12 42.665 17.998 64.998 17.998s42.333 -3.66699 60 -11s35.834 -19.166 54.501 -35.499s33.834 -41.666 45.501 -75.999s17.5 -72 17.5 -113s-6.66699 -79.167 -20 -114.5s-34.333 -66 -63 -92s-63.167 -39 -103.5 -39s-83.5 15.667 -129.5 47v-242h-85
v529c0 46 -17.333 82.333 -52 109l52 38l85 -76c28 26.667 52.5 46 73.5 58zM159.998 326.998l-0.00195312 -268.001c91.333 -43.333 156 -36.333 194 21c20.667 32.667 31 75.834 31 129.501s-8.5 99.667 -25.5 138s-38.167 61.5 -63.5 69.5
c-23.333 -2.66699 -46.166 -11 -68.499 -25s-39.166 -27.167 -50.499 -39.5s-17 -20.833 -17 -25.5z" />
    <glyph glyph-name="q" unicode="q" 
d="M425 -212l-84 -0.000976562v268c-44 -48.667 -91.667 -73 -143 -73s-93.5 20.333 -126.5 61s-49.5 96.834 -49.5 168.501s21.833 131.5 65.5 179.5s96.167 72 157.5 72c41.333 0 83.333 -13.667 126 -41l54 39v-674zM341 104.999l0.00292969 290.002
c-4.66699 3.33301 -16.334 7.16602 -35.001 11.499s-38 6.5 -58 6.5c-41.333 0 -75 -16.5 -101 -49.5s-39 -77.333 -39 -133s8.66699 -101.334 26 -137.001s40.666 -57.167 69.999 -64.5c24 2 47.167 8.33301 69.5 19s39.166 21.5 50.499 32.5s17 19.167 17 24.5z" />
    <glyph glyph-name="r" unicode="r" horiz-adv-x="318" 
d="M148 0l-84 -0.000976562v452h58l23 -84c13.333 23.333 34.5 45.333 63.5 66s58.833 33.334 89.5 38.001l10 -69c-24.667 0 -52.5 -7.66699 -83.5 -23s-56.5 -32.333 -76.5 -51v-329z" />
    <glyph glyph-name="s" unicode="s" horiz-adv-x="372" 
d="M126.5 402.5c-11 -13 -16.5 -27.667 -16.5 -44s7.83301 -32 23.5 -47s34.667 -28.333 57 -40l66.5 -36.5c22 -12.667 40.833 -29 56.5 -49s23.5 -42.333 23.5 -67c0 -37.333 -15 -68.5 -45 -93.5s-70.833 -37.5 -122.5 -37.5s-98.834 12 -141.501 36v38
c45.333 -22.667 86.333 -34 123 -34s63.334 7.33301 80.001 22s25 31.5 25 50.5s-7.5 36 -22.5 51s-33.333 28.167 -55 39.5s-43.167 23.333 -64.5 36s-39.5 29 -54.5 49s-22.5 44.167 -22.5 72.5s11.5 54.666 34.5 78.999s58.5 36.5 106.5 36.5s94 -8.66699 138 -26
l-10 -66c-49.333 26.667 -95 43.334 -137 50.001c-17.333 0 -31.5 -6.5 -42.5 -19.5z" />
    <glyph glyph-name="t" unicode="t" horiz-adv-x="329" 
d="M187 43c8 -10 21.335 -15 40.002 -15s41 5 67 15v-28c-38.667 -18 -73.334 -27 -104.001 -27s-54.834 8.5 -72.501 25.5s-26.5 43.5 -26.5 79.5v323l-81 16v20h81v36l84 61v-97h119v-36h-119v-328c0 -20 4 -35 12 -45z" />
    <glyph glyph-name="u" unicode="u" horiz-adv-x="480" 
d="M397 134c0 -46 17.332 -82.333 51.999 -109l-52 -37l-81 73c-27.333 -26 -51.666 -44.667 -72.999 -56s-46.5 -17 -75.5 -17s-55.667 11.167 -80 33.5s-36.5 60.833 -36.5 115.5v315h85v-320c0 -32 5.83301 -56.167 17.5 -72.5s32 -24.5 61 -24.5s61.5 21.333 97.5 64
v353h85v-318z" />
    <glyph glyph-name="v" unicode="v" horiz-adv-x="415" 
d="M221 -13h-15l-196 465h88l138 -350l131 350h38z" />
    <glyph glyph-name="w" unicode="w" horiz-adv-x="684" 
d="M102 452l133 -353l90 246l-45 107h92l133 -353l130 353h39l-183 -465h-16l-132 312l-123 -312h-15l-195 465h92z" />
    <glyph glyph-name="x" unicode="x" horiz-adv-x="474" 
d="M265 249l179 -249h-99l-129 189l-138 -189h-48l166 211l-163 241h99l114 -182l134 182h49z" />
    <glyph glyph-name="y" unicode="y" horiz-adv-x="441" 
d="M382 452h38l-171 -467c-22 -61.333 -55 -110.666 -99 -147.999s-92.333 -56.333 -145 -57l10 50c90 3.33301 160 61.666 210 174.999l-203 447h89l153 -339z" />
    <glyph glyph-name="z" unicode="z" horiz-adv-x="444" 
d="M45 0v30l267 389l-246 -9l-10 42h347v-28l-266 -388l269 11l10 -47h-371z" />
    <glyph glyph-name="braceleft" unicode="{" horiz-adv-x="480" 
d="M186 337v207.998c0 47.333 9.5 82 28.5 104s52.167 33 99.5 33c14 0 28.667 -2.33301 44 -7v-31c-16.667 6.66699 -36 10 -58 10c-19.333 -5.33301 -31.5 -14.333 -36.5 -27s-7.5 -32 -7.5 -58v-207c0 -30.667 -6.66699 -54.167 -20 -70.5
s-33.666 -30.166 -60.999 -41.499c27.333 -12 47.666 -26 60.999 -42s20 -39.333 20 -70v-207c0 -26 2.5 -45.333 7.5 -58s17.167 -21.667 36.5 -27c18 0 37.333 3 58 9v-30c-15.333 -4.66699 -30 -7 -44 -7c-47.333 0 -80.5 11 -99.5 33s-28.5 56.667 -28.5 104v208
c0 19.333 -4.33301 37 -13 53s-24.334 24.333 -47.001 25v18c22.667 0.666992 38.334 8.83398 47.001 24.501s13 33.5 13 53.5z" />
    <glyph glyph-name="bar" unicode="|" horiz-adv-x="200" 
d="M67 782h66v-1000h-66v1000z" />
    <glyph glyph-name="braceright" unicode="}" horiz-adv-x="480" 
d="M295 163v-207.998c0 -47.333 -9.5 -82 -28.5 -104s-52.167 -33 -99.5 -33c-14 0 -28.667 2.33301 -44 7v31c16.667 -6.66699 36 -10 58 -10c19.333 5.33301 31.5 14.333 36.5 27s7.5 32 7.5 58v207c0 30.667 6.66699 54.167 20 70.5s33.666 30.166 60.999 41.499
c-27.333 12 -47.666 26 -60.999 42s-20 39.333 -20 70v207c0 26 -2.5 45.333 -7.5 58s-17.167 21.667 -36.5 27c-18 0 -37.333 -3 -58 -9v30c15.333 4.66699 30 7 44 7c47.333 0 80.5 -11 99.5 -33s28.5 -56.667 28.5 -104v-208c0 -19.333 4.33301 -37 13 -53
s24.334 -24.333 47.001 -25v-18c-22.667 -0.666992 -38.334 -8.83398 -47.001 -24.501s-13 -33.5 -13 -53.5z" />
    <glyph glyph-name="asciitilde" unicode="~" horiz-adv-x="541" 
d="M431 201.5c-16.667 -9.66699 -36.665 -14.499 -59.998 -14.499s-55.5 11.333 -96.5 34s-78.833 34 -113.5 34s-63 -24 -85 -72l-36 50c30 57.333 71.667 86 125 86c26.667 0 71 -13.667 133 -41c39.333 -18 65.666 -27 78.999 -27s25.833 4 37.5 12
s20.667 16.167 27 24.5s14.5 20.166 24.5 35.499l36 -50c-13.333 -18 -24.333 -32 -33 -42s-21.334 -19.833 -38.001 -29.5z" />
    <glyph glyph-name="exclamdown" unicode="&#xa1;" horiz-adv-x="333" 
d="M132 299h35l30 -495h-95zM187 453c11.333 -8.66699 17 -20.8301 17 -36.4971s-5.33301 -28.834 -16 -39.501s-23.5 -16 -38.5 -16s-27.833 5.16699 -38.5 15.5s-16 23.666 -16 39.999s5.66699 28.666 17 36.999s23.833 12.5 37.5 12.5s26.167 -4.33301 37.5 -13z" />
    <glyph glyph-name="cent" unicode="&#xa2;" 
d="M264 -87v76.002c-52.667 5.33301 -95.5 27.333 -128.5 66s-49.5 91 -49.5 157s16.333 121 49 165s75.667 70.667 129 80v81h34v-77c39.333 0 81 -8.66699 125 -26l-20 -56c-41.333 19.333 -76.333 30.666 -105 33.999v-370c4 -0.666992 10.667 -1 20 -1
c39.333 0 76.333 9 111 27v-35c-44 -28.667 -87.667 -44.334 -131 -47.001v-74h-34zM187.5 331.502c-15.667 -38.333 -23.498 -76.501 -23.498 -114.501s9.16699 -72 27.5 -102s42.166 -51 71.499 -63v363c-34.667 -17.333 -59.834 -45.166 -75.501 -83.499z" />
    <glyph glyph-name="sterling" unicode="&#xa3;" 
d="M179 526l9 -154v-4h141v-38h-143c-5.33301 -114.667 -31 -209 -77 -283c26.667 -6 57.667 -9.66699 93 -11l226 31l-12 -67h-360v27c36.667 58 55 131.333 55 220c0 18 -2 45.667 -6 83h-79v38h74c-5.33301 48 -8 81.667 -8 101c0 62.667 17.667 113.5 53 152.5
s80 58.5 134 58.5c38 0 82.333 -10.333 133 -31l-10 -66c-65.333 35.333 -118 55.666 -158 60.999c-24.667 -8.66699 -41.667 -22.667 -51 -42s-14 -44.666 -14 -75.999z" />
    <glyph glyph-name="currency" unicode="&#xa4;" horiz-adv-x="552" 
d="M376 21c26.667 0 52.332 4.66895 76.999 14.002s44.334 22.666 59.001 39.999v-55c-43.333 -22 -93.333 -33 -150 -33c-72.667 0 -136.5 26 -191.5 78s-84.833 126 -89.5 222h-63v39h62c0 12 1.33301 30 4 54h-66v38h72c12 57.333 34.333 106 67 146
c60 73.333 132.667 110 218 110c20.667 0 43.167 -2.83301 67.5 -8.5s43.5 -12.834 57.5 -21.501v-66c-63.333 36.667 -119.666 55 -168.999 55c-82.667 -26 -133.334 -97.667 -152.001 -215h202v-38h-206c-1.33301 -21.333 -2 -39.333 -2 -54h208v-39h-207
c5.33301 -84.667 26.333 -150.167 63 -196.5s83 -69.5 139 -69.5z" />
    <glyph glyph-name="yen" unicode="&#xa5;" 
d="M474 368v-38h-127l-33 -79v-8h160v-39h-160v-204h-97v204h-160v39h160v3l-42 84h-118v38h99l-145 293h109l165 -379l153 379h50l-125 -293h111z" />
    <glyph glyph-name="brokenbar" unicode="&#xa6;" horiz-adv-x="200" 
d="M67 707h66v-350h-66v350zM67 207h66v-350h-66v350z" />
    <glyph glyph-name="section" unicode="&#xa7;" 
d="M321 129c47.333 -38 71 -79.834 71 -125.501s-15.333 -82.334 -46 -110.001s-72.5 -41.5 -125.5 -41.5s-104.167 10.667 -153.5 32v38c52 -28 96 -42 132 -42s64.167 9.33301 84.5 28s30.5 41.834 30.5 69.501s-8.33301 50.334 -25 68.001s-36.834 33.334 -60.501 47.001
l-71.5 42.5c-24 14.667 -44.333 33.667 -61 57s-25 50.333 -25 81s9.16699 59 27.5 85s46.5 42.667 84.5 50c-52 37.333 -78 81.333 -78 132c0 36.667 12.5 69.167 37.5 97.5s61.333 42.5 109 42.5s93.834 -10.333 138.501 -31v-54c-64 28.667 -123.333 43 -178 43
c-26.667 -14 -40 -34 -40 -60s8.66699 -48.5 26 -67.5s38.5 -36.167 63.5 -51.5l75 -47.5c25 -16.333 46.167 -36.666 63.5 -60.999s26 -52.333 26 -84s-9 -59.834 -27 -84.501s-44 -42.334 -78 -53.001zM285 154.999c42 16 63 49 63 99c0 22.667 -8 42.167 -24 58.5
s-39.333 33.5 -70 51.5c-18.667 4 -44.334 6 -77.001 6c-26 -14 -39 -35 -39 -63s10.833 -51.833 32.5 -71.5s59.834 -46.5 114.501 -80.5z" />
    <glyph glyph-name="dieresis" unicode="&#xa8;" horiz-adv-x="333" 
d="M18 587l-0.000976562 8.00098c0 4.66699 1 9 3 13s3 6.66699 3 8c11.333 16.667 26 25 44 25c9.33301 0 16.333 -1.66699 21 -5c4 -0.666992 9.33301 -4.33398 16 -11.001l6 -9c3.33301 -5.33301 5.66602 -12.333 6.99902 -21v-4c0 -18 -8.33301 -32.667 -25 -44
c-1.33301 0 -2.66602 -0.333008 -3.99902 -1c-4.66699 -3.33301 -11 -5 -19 -5c-5.33301 0 -13.333 1.33301 -24 4c-4 2 -10 7 -18 15c-1.33301 2.66699 -2.66602 4.66699 -3.99902 6c-4 9.33301 -6 16.333 -6 21zM214.999 591.001c0 14 4.83301 25.833 14.5 35.5
s21.5 14.5 35.5 14.5s25.833 -4.83301 35.5 -14.5s14.5 -21.5 14.5 -35.5s-4.83301 -25.833 -14.5 -35.5s-21.5 -14.5 -35.5 -14.5s-25.833 4.83301 -35.5 14.5s-14.5 21.5 -14.5 35.5z" />
    <glyph glyph-name="copyright" unicode="&#xa9;" horiz-adv-x="760" 
d="M137.5 575.5c66.333 67.667 147.5 101.5 243.5 101.5s176.833 -33.833 242.5 -101.5s98.5 -149.5 98.5 -245.5s-32.833 -177.333 -98.5 -244s-146.5 -100 -242.5 -100s-177.167 33.333 -243.5 100s-99.5 148 -99.5 244s33.167 177.833 99.5 245.5zM584 543.5
c-55.333 60.333 -123 90.502 -203 90.502s-148 -30.167 -204 -90.5s-84 -131.333 -84 -213s28.167 -152.5 84.5 -212.5s124 -90 203 -90s146.5 30.167 202.5 90.5s84 131.166 84 212.499s-27.667 152.166 -83 212.499zM534 137.002
c-36 -19.333 -85.166 -29.001 -147.499 -29.001s-116.5 18.5 -162.5 55.5s-69 90.167 -69 159.5c0 40 7.66699 75.833 23 107.5s35.333 56.834 60 75.501c49.333 37.333 105.666 56 168.999 56c38.667 0 78 -7 118 -21l-9 -59c-57.333 24.667 -106.333 37.667 -147 39
c-41.333 -10 -73.833 -31.833 -97.5 -65.5s-35.5 -77.5 -35.5 -131.5s15.833 -97.5 47.5 -130.5s73.5 -49.5 125.5 -49.5s93.667 14.667 125 44v-51z" />
    <glyph glyph-name="ordfeminine" unicode="&#xaa;" horiz-adv-x="262" 
d="M217 579l0.000976562 -95.999c0 -26 11.333 -46.333 34 -61l-39 -30l-47 42c-28.667 -26.667 -54 -40 -76 -40s-39.5 6 -52.5 18s-19.5 27.667 -19.5 47s8.33301 35.666 25 48.999c28.667 22 67.667 34.667 117 38v48c0 28 -16 42 -48 42c-20 0 -46 -5.66699 -78 -17
l-8 24c9.33301 7.33301 24 14.833 44 22.5s39.833 11.5 59.5 11.5s36.167 -3 49.5 -9s22.666 -15.333 27.999 -28c7.33301 -18.667 11 -39 11 -61zM78.001 475.001c0 -20.667 9 -34.999 27 -42.999c12 3.33301 24 9.16602 36 17.499s18 14.5 18 18.5v53
c-24 -2.66699 -43.5 -8.5 -58.5 -17.5s-22.5 -18.5 -22.5 -28.5z" />
    <glyph glyph-name="guillemotleft" unicode="&#xab;" 
d="M42 227l211 189c6.66699 0 10 -3.66699 10 -11l-128 -180l129 -181c0 -7.33301 -3.66699 -11 -11 -11zM234 227l211 189c6.66699 0 10 -3.66699 10 -11l-128 -180l129 -181c0 -7.33301 -3.66699 -11 -11 -11z" />
    <glyph glyph-name="logicalnot" unicode="&#xac;" horiz-adv-x="564" 
d="M447 124v188h-388v58h446v-246h-58z" />
    <glyph glyph-name="registered" unicode="&#xae;" horiz-adv-x="760" 
d="M722 330c0 -96 -32.833 -177.333 -98.5 -244s-146.5 -100 -242.5 -100s-177.167 33.333 -243.5 100s-99.5 148 -99.5 244s33.167 177.833 99.5 245.5s147.5 101.5 243.5 101.5s176.833 -33.833 242.5 -101.5s98.5 -149.5 98.5 -245.5zM583 118.5
c56 60.333 84 131.168 84 212.501s-27.667 152.166 -83 212.499s-123 90.5 -203 90.5s-148 -30.167 -204 -90.5s-84 -131.333 -84 -213s28.167 -152.5 84.5 -212.5s124 -90 203 -90s146.5 30.167 202.5 90.5zM321 318.002l-0.000976562 -201h-77v435h145
c44.667 0 81.334 -10.167 110.001 -30.5s43 -46.833 43 -79.5s-10.5 -58.5 -31.5 -77.5s-49.167 -32.167 -84.5 -39.5l133 -207l-90 -11l-110 211h-38zM320.999 350.002h33.999c72 0 108 28 108 84c0 8 -2.33301 18.333 -7 31c-9.33301 23.333 -29 40 -59 50
c-21.333 0 -46.666 -3.33301 -75.999 -10v-155z" />
    <glyph glyph-name="macron" unicode="&#xaf;" horiz-adv-x="333" 
d="M11 601h311v-54h-311v54z" />
    <glyph glyph-name="degree" unicode="&#xb0;" horiz-adv-x="400" 
d="M200 424c28.667 0 53.167 10.833 73.5 32.5s30.5 47.167 30.5 76.5s-10.167 54.833 -30.5 76.5s-44.833 32.5 -73.5 32.5s-53.167 -10.833 -73.5 -32.5s-30.5 -47.167 -30.5 -76.5s10.167 -54.833 30.5 -76.5s44.833 -32.5 73.5 -32.5zM200 390
c-40 0 -73.833 13.833 -101.5 41.5s-41.5 61.5 -41.5 101.5s13.833 74 41.5 102s61.5 42 101.5 42s73.833 -14 101.5 -42s41.5 -62 41.5 -102s-13.833 -73.833 -41.5 -101.5s-61.5 -41.5 -101.5 -41.5z" />
    <glyph glyph-name="plusminus" unicode="&#xb1;" horiz-adv-x="564" 
d="M253 358v195h58v-195h194v-58h-194v-195h-58v195h-194v58h194zM505 0h-446v58h446v-58z" />
    <glyph glyph-name="twosuperior" unicode="&#xb2;" horiz-adv-x="405" 
d="M290 630.5c22 -22.333 33 -49.333 33 -81s-17.167 -67.334 -51.5 -107.001s-72.833 -75.5 -115.5 -107.5v-5l176 8v-57h-262v41c44 26.667 85.667 62.334 125 107.001s59 83.5 59 116.5s-16.333 56.167 -49 69.5c-24.667 -0.666992 -60 -7.66699 -106 -21l-16 54
c32 10.667 69 16 111 16s74 -11.167 96 -33.5z" />
    <glyph glyph-name="threesuperior" unicode="&#xb3;" horiz-adv-x="405" 
d="M184 271c-36 0 -74 5.99805 -114 17.998l17 48c36 -16 66 -26 90 -30c22 0.666992 40.667 7.83398 56 21.501s23 31.834 23 54.501s-9.66699 41.5 -29 56.5s-50 22.5 -92 22.5v26c70.667 4 106 28.333 106 73c0 8 -3.83301 18 -11.5 30s-19.5 22 -35.5 30
c-16.667 0 -47.667 -6 -93 -18l-17 47c36 9.33301 69.667 14 101 14s60 -8.83301 86 -26.5s39 -43.167 39 -76.5s-23.333 -60.666 -70 -81.999c30 -8 52.833 -20 68.5 -36s23.5 -34.333 23.5 -55c0 -36.667 -15.667 -65.334 -47 -86.001s-65 -31 -101 -31z" />
    <glyph glyph-name="acute" unicode="&#xb4;" horiz-adv-x="333" 
d="M133 507h-40l172 188l56 -50z" />
    <glyph glyph-name="mu" unicode="&#xb5;" horiz-adv-x="510" 
d="M405 452v-318c0 -46 17.333 -82.333 52 -109l-52 -37l-81 73c-21.333 -26 -41 -44.833 -59 -56.5s-40.667 -17.5 -68 -17.5c-36 0 -64.667 19 -86 57h-4c2 -32 7 -66.167 15 -102.5s15.333 -64.833 22 -85.5l11 -30c-16.667 -24 -42 -36 -76 -36v662h85v-320
c0 -32 5.83301 -56.167 17.5 -72.5s31.5 -24.5 59.5 -24.5c14 0 28.5 6.66699 43.5 20s26.833 28 35.5 44v353h85z" />
    <glyph glyph-name="paragraph" unicode="&#xb6;" horiz-adv-x="453" 
d="M238 640v-794h-66v477c-67.333 0 -116.5 13.833 -147.5 41.5s-46.5 72.5 -46.5 134.5c0 108.667 69.667 163 209 163h175v-816h-66v794h-58zM82.5 602.5c-19 -22.333 -28.5 -60.167 -28.5 -113.5s9.5 -90 28.5 -110s48.833 -31.333 89.5 -34v295
c-40.667 -2.66699 -70.5 -15.167 -89.5 -37.5z" />
    <glyph glyph-name="periodcentered" unicode="&#xb7;" horiz-adv-x="250" 
d="M125 199c-12.667 0 -25 4.66699 -37 14s-18 22.333 -18 39s5.33301 30.5 16 41.5s23.667 16.5 39 16.5s28.5 -5.66699 39.5 -17s16.5 -25 16.5 -41s-6.16699 -28.833 -18.5 -38.5s-24.833 -14.5 -37.5 -14.5z" />
    <glyph glyph-name="cedilla" unicode="&#xb8;" horiz-adv-x="333" 
d="M225.5 -190.5c-23.667 -16.333 -52 -24.501 -85 -24.501s-62.5 5.33301 -88.5 16l14 31c19.333 -8 38.5 -12 57.5 -12s34.167 3.83301 45.5 11.5s17 16.834 17 27.501c-14 27.333 -43 41 -87 41l40 100h35l-25 -65c22 0 43.333 -5.83301 64 -17.5
s36.667 -28.167 48 -49.5c0 -22.667 -11.833 -42.167 -35.5 -58.5z" />
    <glyph glyph-name="onesuperior" unicode="&#xb9;" horiz-adv-x="405" 
d="M258 667v-386h-68v307l-81 -41l-29 48l169 72h9z" />
    <glyph glyph-name="ordmasculine" unicode="&#xba;" horiz-adv-x="304" 
d="M60 641c30 24 63.668 36 101.001 36s67.666 -11.833 90.999 -35.5s35 -59 35 -106s-15 -82.5 -45 -106.5s-63.5 -36 -100.5 -36s-67.333 12 -91 36s-35.5 59.333 -35.5 106s15 82 45 106zM95.001 456c12 -20.667 30.168 -31 54.501 -31s42.666 11.333 54.999 34
s18.5 47.667 18.5 75c0 73.333 -26.667 110 -80 110c-22 -8 -38.5 -22 -49.5 -42s-16.5 -44.167 -16.5 -72.5s6 -52.833 18 -73.5z" />
    <glyph glyph-name="guillemotright" unicode="&#xbb;" 
d="M460 221l-211 -189c-6.66699 0 -10 3.66699 -10 11l128 180l-129 181c0 7.33301 3.66699 11 11 11zM270 221l-211 -189c-6.66699 0 -10 3.66699 -10 11l128 180l-129 181c0 7.33301 3.66699 11 11 11z" />
    <glyph glyph-name="onequarter" unicode="&#xbc;" horiz-adv-x="799" 
d="M227 687v-386h-68v307l-81 -41l-29 48l169 72h9zM757 120v-44h-53v-76h-67v76h-183v26l186 276h64v-258h53zM637 120v193l-127 -193h127zM599 677l-350 -691h-49l353 691h46z" />
    <glyph glyph-name="onehalf" unicode="&#xbd;" horiz-adv-x="799" 
d="M227 687v-386h-68v307l-81 -41l-29 48l169 72h9zM700 349.5c22 -22.333 33 -49.333 33 -81s-17.167 -67.334 -51.5 -107.001s-72.833 -75.5 -115.5 -107.5v-5l176 8v-57h-262v41c44 26.667 85.667 62.334 125 107.001s59 83.5 59 116.5s-16.333 56.167 -49 69.5
c-24.667 -0.666992 -60 -7.66699 -106 -21l-16 54c32 10.667 69 16 111 16s74 -11.167 96 -33.5zM599 677l-350 -691h-49l353 691h46z" />
    <glyph glyph-name="threequarters" unicode="&#xbe;" horiz-adv-x="799" 
d="M153 291c-36 0 -74 5.99805 -114 17.998l17 48c36 -16 66 -26 90 -30c22 0.666992 40.667 7.83398 56 21.501s23 31.834 23 54.501s-9.66699 41.5 -29 56.5s-50 22.5 -92 22.5v26c70.667 4 106 28.333 106 73c0 8 -3.83301 18 -11.5 30s-19.5 22 -35.5 30
c-16.667 0 -47.667 -6 -93 -18l-17 47c36 9.33301 69.667 14 101 14s60 -8.83301 86 -26.5s39 -43.167 39 -76.5s-23.333 -60.666 -70 -81.999c30 -8 52.833 -20 68.5 -36s23.5 -34.333 23.5 -55c0 -36.667 -15.667 -65.334 -47 -86.001s-65 -31 -101 -31zM727 119.998v-44
h-53v-76h-67v76h-183v26l186 276h64v-258h53zM607 119.998v193l-127 -193h127zM599 676.998l-350 -691h-49l353 691h46z" />
    <glyph glyph-name="questiondown" unicode="&#xbf;" horiz-adv-x="444" 
d="M288 376.5c-10.667 -10.333 -23.499 -15.502 -38.499 -15.502s-27.833 5.33301 -38.5 16s-16 23.834 -16 39.501s5.66699 28 17 37s23.666 13.5 36.999 13.5s25.833 -4.33301 37.5 -13s17.5 -21.167 17.5 -37.5s-5.33301 -29.666 -16 -39.999zM253.001 -196.002
c-74.667 0 -128.167 16.501 -160.5 49.501s-48.5 72.333 -48.5 118s19.5 97.667 58.5 156s86.167 115.5 141.5 171.5l29 -23c-43.333 -46.667 -78.5 -96.167 -105.5 -148.5s-40.5 -99.833 -40.5 -142.5c0 -60.667 28.667 -102.334 86 -125.001c45.333 0 93 7.33301 143 22
v-63c-38.667 -10 -73 -15 -103 -15z" />
    <glyph glyph-name="Agrave" unicode="&#xc0;" horiz-adv-x="629" 
d="M10 0l297 678h15l297 -678h-109l-75 180h-297l-74 -180h-54zM153 218h266l-132 324zM389 719h-40l-188 138l56 50z" />
    <glyph glyph-name="Aacute" unicode="&#xc1;" horiz-adv-x="629" 
d="M10 0l297 678h15l297 -678h-109l-75 180h-297l-74 -180h-54zM153 218h266l-132 324zM305 734h-40l172 194l56 -52z" />
    <glyph glyph-name="Acircumflex" unicode="&#xc2;" horiz-adv-x="629" 
d="M10 0l297 678h15l297 -678h-109l-75 180h-297l-74 -180h-54zM153 218h266l-132 324zM339 886l126 -167h-40l-110 93l-109 -93h-40l125 167h48z" />
    <glyph glyph-name="Atilde" unicode="&#xc3;" horiz-adv-x="629" 
d="M10 0l297 678h15l297 -678h-109l-75 180h-297l-74 -180h-54zM153 218h266l-132 324zM299.5 764.5c-33.667 13.667 -54.834 20.5 -63.501 20.5s-16.667 -3.33301 -24 -10s-16.666 -17.667 -27.999 -33l-27 15c18 43.333 52 73 102 89
c14.667 0 38.834 -6.83301 72.501 -20.5s54.834 -20.5 63.501 -20.5s16.667 3.33301 24 10s16.666 17.667 27.999 33l27 -15c-18 -43.333 -52 -73 -102 -89c-14.667 0 -38.834 6.83301 -72.501 20.5z" />
    <glyph glyph-name="Adieresis" unicode="&#xc4;" horiz-adv-x="629" 
d="M10 0l297 678h15l297 -678h-109l-75 180h-297l-74 -180h-54zM153 218h266l-132 324zM166 753v12c0 18 10.667 32.333 32 43l14 3h4c20.667 0 35.667 -9.66699 45 -29c2.66699 -5.33301 4 -9 4 -11s0.333008 -4 1 -6v-8c0 -11.333 -6.33301 -23.333 -19 -36
c-2.66699 -1.33301 -4.66699 -2.66602 -6 -3.99902c-1.33301 0 -2.66602 -0.333008 -3.99902 -1c-4.66699 -3.33301 -10.334 -5 -17.001 -5h-4c-12 0 -20.333 1.83301 -25 5.5s-7.66699 5.83398 -9 6.50098c-2 1.33301 -3 2.66602 -3 3.99902
c-4 3.33301 -7.33301 8.66602 -10 15.999zM363 761c0 14 4.83301 25.833 14.5 35.5s21.5 14.5 35.5 14.5s25.833 -4.83301 35.5 -14.5s14.5 -21.5 14.5 -35.5s-4.83301 -25.833 -14.5 -35.5s-21.5 -14.5 -35.5 -14.5s-25.833 4.83301 -35.5 14.5s-14.5 21.5 -14.5 35.5z" />
    <glyph glyph-name="Aring" unicode="&#xc5;" horiz-adv-x="629" 
d="M10 0l297 678h15l297 -678h-109l-75 180h-297l-74 -180h-54zM153 218h266l-132 324zM214 798c0 27.333 9.5 50.833 28.5 70.5s42.333 29.5 70 29.5s51.334 -9.83301 71.001 -29.5s29.5 -43.167 29.5 -70.5s-9.83301 -50.666 -29.5 -69.999s-43.334 -29 -71.001 -29
s-51 9.66699 -70 29s-28.5 42.666 -28.5 69.999zM360 844.5c-12.667 13 -28.833 19.5 -48.5 19.5s-35.167 -7.16699 -46.5 -21.5s-17 -29 -17 -44s5.5 -29.667 16.5 -44s26.333 -21.5 46 -21.5s36 6.33301 49 19s19.5 28 19.5 46s-6.33301 33.5 -19 46.5z" />
    <glyph glyph-name="AE" unicode="&#xc6;" horiz-adv-x="822" 
d="M375 0v180h-217l-94 -180h-54l365 661h376l-10 -67l-161 31c-32.667 0 -68.667 -5.66699 -108 -17v-242h197v-38h-197v-292l295 31l-10 -67h-382zM375 218v375l-197 -375h197z" />
    <glyph glyph-name="Ccedilla" unicode="&#xc7;" horiz-adv-x="632" 
d="M28 313c0 61.333 11.667 115.999 35 163.999s54 85.667 92 113c76.667 56 162.667 84 258 84c55.333 0 113 -10 173 -30l-10 -68c-31.333 13.333 -55.666 23.333 -72.999 30c-50 18 -100.333 27 -151 27c-70 -16 -123.833 -50.667 -161.5 -104s-56.5 -120 -56.5 -200
c0 -98 25.667 -173.5 77 -226.5s119 -79.5 203 -79.5s146.667 18 188 54v-55c-57.333 -22.667 -126.333 -34 -207 -34h-12l-20 -53c22 0 43.333 -5.83301 64 -17.5s36.667 -28.167 48 -49.5c0 -22.667 -11.833 -42.167 -35.5 -58.5s-52 -24.5 -85 -24.5
s-62.5 5.33301 -88.5 16l14 31c19.333 -8 38.5 -12 57.5 -12s34.167 3.83301 45.5 11.5s17 16.834 17 27.501c-14 27.333 -43 41 -87 41l36 90c-92.667 8 -169.334 39.667 -230.001 95s-91 131.333 -91 228z" />
    <glyph glyph-name="Egrave" unicode="&#xc8;" horiz-adv-x="562" 
d="M90 0v662h401l-10 -67l-186 31c-32.667 0 -68.667 -5.66699 -108 -17v-243h222v-38h-222v-292l310 31l-10 -67h-397zM381 719h-40l-188 138l56 50z" />
    <glyph glyph-name="Eacute" unicode="&#xc9;" horiz-adv-x="562" 
d="M90 0v662h401l-10 -67l-186 31c-32.667 0 -68.667 -5.66699 -108 -17v-243h222v-38h-222v-292l310 31l-10 -67h-397zM273 719h-40l172 188l56 -50z" />
    <glyph glyph-name="Ecircumflex" unicode="&#xca;" horiz-adv-x="562" 
d="M90 0v662h401l-10 -67l-186 31c-32.667 0 -68.667 -5.66699 -108 -17v-243h222v-38h-222v-292l310 31l-10 -67h-397zM329 886l126 -167h-40l-110 93l-109 -93h-40l125 167h48z" />
    <glyph glyph-name="Edieresis" unicode="&#xcb;" horiz-adv-x="562" 
d="M90 0v662h401l-10 -67l-186 31c-32.667 0 -68.667 -5.66699 -108 -17v-243h222v-38h-222v-292l310 31l-10 -67h-397zM342 761c0 14 4.83301 25.833 14.5 35.5s21.5 14.5 35.5 14.5s25.833 -4.83301 35.5 -14.5s14.5 -21.5 14.5 -35.5s-4.83301 -25.833 -14.5 -35.5
s-21.5 -14.5 -35.5 -14.5s-25.833 4.83301 -35.5 14.5s-14.5 21.5 -14.5 35.5zM203 711l-15.999 -0.00390625l-10 3c-12 4 -21.333 12.333 -28 25c-2.66699 8 -4 14 -4 18v4c0 8.66699 1.33301 15.334 4 20.001s4.66699 8.33398 6 11.001l9 8
c5.33301 4 9.66602 6.66699 12.999 8l14 3h8l14 -3l3 -2c1.33301 0 2.66602 -0.666992 3.99902 -2l12 -9l6 -9c4.66699 -8 7 -16.333 7 -25v-4l-3 -14c-1.33301 -3.33301 -4 -7.66602 -8 -12.999c-1.33301 -3.33301 -3 -5.33301 -5 -6
c-3.33301 -3.33301 -8.66602 -6.66602 -15.999 -9.99902z" />
    <glyph glyph-name="Igrave" unicode="&#xcc;" horiz-adv-x="272" 
d="M182 662v-662h-92v662h92zM183 719h-40l-188 138l56 50z" />
    <glyph glyph-name="Iacute" unicode="&#xcd;" horiz-adv-x="272" 
d="M182 662v-662h-92v662h92zM133 719h-40l172 188l56 -50z" />
    <glyph glyph-name="Icircumflex" unicode="&#xce;" horiz-adv-x="272" 
d="M182 662v-662h-92v662h92zM159 886l126 -167h-40l-110 93l-109 -93h-40l125 167h48z" />
    <glyph glyph-name="Idieresis" unicode="&#xcf;" horiz-adv-x="272" 
d="M182 662v-662h-92v662h92zM187 761c0 14 4.83301 25.833 14.5 35.5s21.5 14.5 35.5 14.5s25.833 -4.83301 35.5 -14.5s14.5 -21.5 14.5 -35.5s-4.83301 -25.833 -14.5 -35.5s-21.5 -14.5 -35.5 -14.5s-25.833 4.83301 -35.5 14.5s-14.5 21.5 -14.5 35.5zM74 798
c9.33301 -9.33301 14.166 -16.668 14.499 -22.001s0.833008 -9 1.5 -11v-4v-10c-1.33301 -6.66699 -3.66602 -11.667 -6.99902 -15c-3.33301 -7.33301 -6.33301 -11.333 -9 -12c-8.66699 -8.66699 -18.667 -13 -30 -13s-18.833 1 -22.5 3s-6 3.33301 -7 4
s-2.83301 1.66699 -5.5 3c-4.66699 4 -8.66699 9 -12 15c-4.66699 3.33301 -7 9.83301 -7 19.5s1 17.5 3 23.5c8 21.333 23.667 32 47 32h4c2 -0.666992 3.83301 -1 5.5 -1s5 -1.16699 10 -3.5s9.83301 -5.16602 14.5 -8.49902z" />
    <glyph glyph-name="Eth" unicode="&#xd0;" horiz-adv-x="708" 
d="M90 0l0.00195312 316h-85v43h85v303h189c78.667 0 149.667 -16.667 213 -50c34 -17.333 63.667 -39 89 -65s45.666 -59.167 60.999 -99.5s23 -85.166 23 -134.499c0 -70.667 -17.667 -130.334 -53 -179.001c-64.667 -89.333 -169.334 -134 -314.001 -134h-208z
M278.002 34c84.667 0 152.668 25 204.001 75s77 123.333 77 220c0 74.667 -20.333 138.5 -61 191.5s-93.334 88.167 -158.001 105.5c-58 0 -108.667 -7 -152 -21v-246h144v-43h-144v-273c21.333 -6 51.333 -9 90 -9z" />
    <glyph glyph-name="Ntilde" unicode="&#xd1;" horiz-adv-x="722" 
d="M593 -11h-17l-438 548h-4v-537h-44v662h74l381 -481h4v481h44v-673zM344.5 764.5c-33.667 13.667 -54.834 20.5 -63.501 20.5s-16.667 -3.33301 -24 -10s-16.666 -17.667 -27.999 -33l-27 15c18 43.333 52 73 102 89c14.667 0 38.834 -6.83301 72.501 -20.5
s54.834 -20.5 63.501 -20.5s16.667 3.33301 24 10s16.666 17.667 27.999 33l27 -15c-18 -43.333 -52 -73 -102 -89c-14.667 0 -38.834 6.83301 -72.501 20.5z" />
    <glyph glyph-name="Ograve" unicode="&#xd2;" horiz-adv-x="725" 
d="M391 674c86.667 0 158.333 -28.5 215 -85.5s85 -136.167 85 -237.5c0 -65.333 -11.333 -122.5 -34 -171.5s-52.334 -86.833 -89.001 -113.5c-71.333 -52 -150 -78 -236 -78s-157.167 28.833 -213.5 86.5s-84.5 137.167 -84.5 238.5c0 52.667 7.5 100.167 22.5 142.5
s34.667 76.833 59 103.5s52.5 49 84.5 67c58.667 32 122.334 48 191.001 48zM259.999 45.5c29.333 -16.333 63.168 -24.501 101.501 -24.501s72.5 9.66699 102.5 29s53.333 44.666 70 75.999c34 62.667 51 130 51 202c0 88.667 -17.667 160 -53 214
c-39.333 60.667 -104.333 91 -195 91c-64.667 -22.667 -113.667 -61.667 -147 -117s-50 -118 -50 -188c0 -85.333 16.667 -156.666 50 -213.999c17.333 -29.333 40.666 -52.166 69.999 -68.499zM436.001 718.999h-40l-188 138l56 50z" />
    <glyph glyph-name="Oacute" unicode="&#xd3;" horiz-adv-x="725" 
d="M391 674c86.667 0 158.333 -28.5 215 -85.5s85 -136.167 85 -237.5c0 -65.333 -11.333 -122.5 -34 -171.5s-52.334 -86.833 -89.001 -113.5c-71.333 -52 -150 -78 -236 -78s-157.167 28.833 -213.5 86.5s-84.5 137.167 -84.5 238.5c0 52.667 7.5 100.167 22.5 142.5
s34.667 76.833 59 103.5s52.5 49 84.5 67c58.667 32 122.334 48 191.001 48zM259.999 45.5c29.333 -16.333 63.168 -24.501 101.501 -24.501s72.5 9.66699 102.5 29s53.333 44.666 70 75.999c34 62.667 51 130 51 202c0 88.667 -17.667 160 -53 214
c-39.333 60.667 -104.333 91 -195 91c-64.667 -22.667 -113.667 -61.667 -147 -117s-50 -118 -50 -188c0 -85.333 16.667 -156.666 50 -213.999c17.333 -29.333 40.666 -52.166 69.999 -68.499zM328.001 718.999h-40l172 188l56 -50z" />
    <glyph glyph-name="Ocircumflex" unicode="&#xd4;" horiz-adv-x="725" 
d="M391 674c86.667 0 158.333 -28.5 215 -85.5s85 -136.167 85 -237.5c0 -65.333 -11.333 -122.5 -34 -171.5s-52.334 -86.833 -89.001 -113.5c-71.333 -52 -150 -78 -236 -78s-157.167 28.833 -213.5 86.5s-84.5 137.167 -84.5 238.5c0 52.667 7.5 100.167 22.5 142.5
s34.667 76.833 59 103.5s52.5 49 84.5 67c58.667 32 122.334 48 191.001 48zM259.999 45.5c29.333 -16.333 63.168 -24.501 101.501 -24.501s72.5 9.66699 102.5 29s53.333 44.666 70 75.999c34 62.667 51 130 51 202c0 88.667 -17.667 160 -53 214
c-39.333 60.667 -104.333 91 -195 91c-64.667 -22.667 -113.667 -61.667 -147 -117s-50 -118 -50 -188c0 -85.333 16.667 -156.666 50 -213.999c17.333 -29.333 40.666 -52.166 69.999 -68.499zM384.001 885.999l126 -167h-40l-110 93l-109 -93h-40l125 167h48z" />
    <glyph glyph-name="Otilde" unicode="&#xd5;" horiz-adv-x="725" 
d="M391 674c86.667 0 158.333 -28.5 215 -85.5s85 -136.167 85 -237.5c0 -65.333 -11.333 -122.5 -34 -171.5s-52.334 -86.833 -89.001 -113.5c-71.333 -52 -150 -78 -236 -78s-157.167 28.833 -213.5 86.5s-84.5 137.167 -84.5 238.5c0 52.667 7.5 100.167 22.5 142.5
s34.667 76.833 59 103.5s52.5 49 84.5 67c58.667 32 122.334 48 191.001 48zM259.999 45.5c29.333 -16.333 63.168 -24.501 101.501 -24.501s72.5 9.66699 102.5 29s53.333 44.666 70 75.999c34 62.667 51 130 51 202c0 88.667 -17.667 160 -53 214
c-39.333 60.667 -104.333 91 -195 91c-64.667 -22.667 -113.667 -61.667 -147 -117s-50 -118 -50 -188c0 -85.333 16.667 -156.666 50 -213.999c17.333 -29.333 40.666 -52.166 69.999 -68.499zM346.501 764.499c-33.667 13.667 -54.834 20.5 -63.501 20.5
s-16.667 -3.33301 -24 -10s-16.666 -17.667 -27.999 -33l-27 15c18 43.333 52 73 102 89c14.667 0 38.834 -6.83301 72.501 -20.5s54.834 -20.5 63.501 -20.5s16.667 3.33301 24 10s16.666 17.667 27.999 33l27 -15c-18 -43.333 -52 -73 -102 -89
c-14.667 0 -38.834 6.83301 -72.501 20.5z" />
    <glyph glyph-name="Odieresis" unicode="&#xd6;" horiz-adv-x="725" 
d="M391 674c86.667 0 158.333 -28.5 215 -85.5s85 -136.167 85 -237.5c0 -65.333 -11.333 -122.5 -34 -171.5s-52.334 -86.833 -89.001 -113.5c-71.333 -52 -150 -78 -236 -78s-157.167 28.833 -213.5 86.5s-84.5 137.167 -84.5 238.5c0 52.667 7.5 100.167 22.5 142.5
s34.667 76.833 59 103.5s52.5 49 84.5 67c58.667 32 122.334 48 191.001 48zM259.999 45.5c29.333 -16.333 63.168 -24.501 101.501 -24.501s72.5 9.66699 102.5 29s53.333 44.666 70 75.999c34 62.667 51 130 51 202c0 88.667 -17.667 160 -53 214
c-39.333 60.667 -104.333 91 -195 91c-64.667 -22.667 -113.667 -61.667 -147 -117s-50 -118 -50 -188c0 -85.333 16.667 -156.666 50 -213.999c17.333 -29.333 40.666 -52.166 69.999 -68.499zM269.001 710.999l-12 -0.000976562c-6.66699 1.33301 -11.5 3 -14.5 5
s-5.83301 3.66699 -8.5 5c-12 9.33301 -18.333 21.333 -19 36v4c0 14 4.83301 25.833 14.5 35.5s21.5 14.5 35.5 14.5c20.667 0 35.667 -9.66699 45 -29c3.33301 -6.66699 5 -13.667 5 -21v-4c0 -0.666992 -0.333008 -2.33398 -1 -5.00098
c-0.666992 -7.33301 -2.66699 -12.666 -6 -15.999l-6 -9l-6 -6c-2.66699 -1.33301 -4.66699 -2.66602 -6 -3.99902c-9.33301 -4 -16.333 -6 -21 -6zM412.001 760.998c0 14 4.83301 25.833 14.5 35.5s21.5 14.5 35.5 14.5s25.833 -4.83301 35.5 -14.5s14.5 -21.5 14.5 -35.5
s-4.83301 -25.833 -14.5 -35.5s-21.5 -14.5 -35.5 -14.5s-25.833 4.83301 -35.5 14.5s-14.5 21.5 -14.5 35.5z" />
    <glyph glyph-name="multiply" unicode="&#xd7;" horiz-adv-x="564" 
d="M240 253l-174 174l42 42l174 -174l175 174l42 -42l-174 -174l174 -175l-42 -42l-175 174l-174 -174l-42 42z" />
    <glyph glyph-name="Oslash" unicode="&#xd8;" horiz-adv-x="725" 
d="M543 636l66.001 98.001h49l-81 -120c76 -58.667 114 -146.334 114 -263.001c0 -65.333 -11.333 -122.5 -34 -171.5s-52.334 -86.833 -89.001 -113.5c-71.333 -52 -149.666 -78 -234.999 -78c-58 0 -109.667 13 -155 39l-73 -107h-49l89 130c-74 60 -111 147.667 -111 263
c0 52.667 7.5 100.167 22.5 142.5s34.667 76.833 59 103.5s52.5 49 84.5 67c58.667 32 119.167 48 181.5 48s116.166 -12.667 161.499 -38zM362.001 21.001c38 0 72 9.66797 102 29.001s53.333 44.666 70 75.999c34 62.667 51 130 51 202c0 92 -18.333 164.333 -55 217
l-315 -464c36.667 -40 85.667 -60 147 -60zM190.001 516.002c-33.333 -55.333 -50 -122.333 -50 -201s16.333 -145 49 -199l313 460c-41.333 38 -96.333 57 -165 57c-64.667 -22.667 -113.667 -61.667 -147 -117z" />
    <glyph glyph-name="Ugrave" unicode="&#xd9;" horiz-adv-x="657" 
d="M582 662l-0.000976562 -405.999c0 -62 -6.66699 -108.667 -20 -140c-6 -14 -15.5 -29.833 -28.5 -47.5s-28.167 -31.834 -45.5 -42.501c-44 -25.333 -99 -38 -165 -38c-165.333 0 -248 85 -248 255v419h102v-427c0 -19.333 0.333008 -35 1 -47s4.16699 -29 10.5 -51
s15 -39.667 26 -53s28.333 -25.333 52 -36s51.834 -16 84.501 -16c124.667 0 187 66.667 187 200v430h44zM436.999 719.001h-40l-188 138l56 50z" />
    <glyph glyph-name="Uacute" unicode="&#xda;" horiz-adv-x="657" 
d="M582 662l-0.000976562 -405.999c0 -62 -6.66699 -108.667 -20 -140c-6 -14 -15.5 -29.833 -28.5 -47.5s-28.167 -31.834 -45.5 -42.501c-44 -25.333 -99 -38 -165 -38c-165.333 0 -248 85 -248 255v419h102v-427c0 -19.333 0.333008 -35 1 -47s4.16699 -29 10.5 -51
s15 -39.667 26 -53s28.333 -25.333 52 -36s51.834 -16 84.501 -16c124.667 0 187 66.667 187 200v430h44zM371.999 719.001h-40l172 188l56 -50z" />
    <glyph glyph-name="Ucircumflex" unicode="&#xdb;" horiz-adv-x="657" 
d="M582 662l-0.000976562 -405.999c0 -62 -6.66699 -108.667 -20 -140c-6 -14 -15.5 -29.833 -28.5 -47.5s-28.167 -31.834 -45.5 -42.501c-44 -25.333 -99 -38 -165 -38c-165.333 0 -248 85 -248 255v419h102v-427c0 -19.333 0.333008 -35 1 -47s4.16699 -29 10.5 -51
s15 -39.667 26 -53s28.333 -25.333 52 -36s51.834 -16 84.501 -16c124.667 0 187 66.667 187 200v430h44zM377.999 886.001l126 -167h-40l-110 93l-109 -93h-40l125 167h48z" />
    <glyph glyph-name="Udieresis" unicode="&#xdc;" horiz-adv-x="657" 
d="M582 662l-0.000976562 -405.999c0 -62 -6.66699 -108.667 -20 -140c-6 -14 -15.5 -29.833 -28.5 -47.5s-28.167 -31.834 -45.5 -42.501c-44 -25.333 -99 -38 -165 -38c-165.333 0 -248 85 -248 255v419h102v-427c0 -19.333 0.333008 -35 1 -47s4.16699 -29 10.5 -51
s15 -39.667 26 -53s28.333 -25.333 52 -36s51.834 -16 84.501 -16c124.667 0 187 66.667 187 200v430h44zM401.999 761.001c0 14 4.83301 25.833 14.5 35.5s21.5 14.5 35.5 14.5s25.833 -4.83301 35.5 -14.5s14.5 -21.5 14.5 -35.5s-4.83301 -25.833 -14.5 -35.5
s-21.5 -14.5 -35.5 -14.5s-25.833 4.83301 -35.5 14.5s-14.5 21.5 -14.5 35.5zM204.999 753.001v7.99805c0 14 4.83301 25.833 14.5 35.5s21.5 14.5 35.5 14.5h4l14 -3l16 -10l3 -3l6 -9c1.33301 -1.33301 2 -2.66602 2 -3.99902l2 -3l3 -14v-8
c0 -0.666992 -0.333008 -2.33398 -1 -5.00098c-0.666992 -9.33301 -5.66699 -18.666 -15 -27.999c-10 -8.66699 -20.667 -13 -32 -13s-19 1.33301 -23 4s-7.33301 4.66699 -10 6c-10.667 8.66699 -17 19.334 -19 32.001z" />
    <glyph glyph-name="Yacute" unicode="&#xdd;" horiz-adv-x="557" 
d="M343 0h-97v246l-226 416h109l185 -380l173 380h50l-194 -411v-251zM303 719h-40l172 188l56 -50z" />
    <glyph glyph-name="Thorn" unicode="&#xde;" horiz-adv-x="556" 
d="M187 194l89.001 0.00195312c31.333 0 58.166 6 80.499 18s38.5 27.333 48.5 46c18 33.333 27 65.666 27 96.999c0 15.333 -4 33.666 -12 54.999c-16 44 -49 72.667 -99 86c-48 0 -92.667 -5.66699 -134 -17v-285zM187.001 532.002h118c67.333 0 122.5 -15.333 165.5 -46
s64.5 -72.667 64.5 -126c0 -64 -23.5 -112.5 -70.5 -145.5s-110.833 -49.5 -191.5 -49.5h-86v-165h-97v662h97v-130z" />
    <glyph glyph-name="germandbls" unicode="&#xdf;" horiz-adv-x="579" 
d="M466 180c0 23.333 -4.99707 44.8311 -14.9971 64.498s-22.333 35.5 -37 47.5s-29.334 22.833 -44.001 32.5s-27 18.834 -37 27.501s-15 17.834 -15 27.501s7.66699 24.5 23 44.5s30.5 41.5 45.5 64.5s22.5 43.5 22.5 61.5s-7.5 34.833 -22.5 50.5
s-34.167 27.167 -57.5 34.5c-34.667 0 -82.667 -9.33301 -144 -28v-607h-82v416l-83 16v20h84v203c62 18.667 127.167 28 195.5 28s118.333 -11.167 150 -33.5s47.5 -51.166 47.5 -86.499c0 -20 -6.83301 -41.5 -20.5 -64.5s-27.334 -41.5 -41.001 -55.5
s-33.834 -33 -60.501 -57c118.667 -61.333 178 -130 178 -206c0 -62.667 -21.5 -110.334 -64.5 -143.001s-88.333 -49 -136 -49s-95.834 8.66699 -144.501 26l23 64c40 -20 77.333 -36 112 -48c34.667 5.33301 63.834 20.333 87.501 45s35.5 59.667 35.5 105z" />
    <glyph glyph-name="agrave" unicode="&#xe0;" horiz-adv-x="444" 
d="M285 106l-0.000976562 103c-48 -3.33301 -87.333 -14 -118 -32s-46 -37.333 -46 -58s5.33301 -38.5 16 -53.5s24.334 -25.5 41.001 -31.5c22 4 45.333 15 70 33s37 31 37 39zM366.999 133c0 -47.333 17.334 -83.333 52.001 -108l-52 -38l-81 73
c-52.667 -48 -101.334 -72 -146.001 -72c-29.333 0 -54.5 9.33301 -75.5 28s-31.5 42.167 -31.5 70.5s8.5 51.833 25.5 70.5s39.5 33 67.5 43c48 18 101 29.333 159 34v94c0 55.333 -32 83 -96 83c-36.667 0 -80 -8 -130 -24l-9 25c13.333 10.667 36.5 22 69.5 34
s64.5 18 94.5 18s55.167 -4 75.5 -12s35.333 -17 45 -27s17.167 -23.667 22.5 -41s8.33301 -31 9 -41s1 -23.333 1 -40v-170zM298 507h-40l-188 138l56 50z" />
    <glyph glyph-name="aacute" unicode="&#xe1;" horiz-adv-x="444" 
d="M285 106l-0.000976562 103c-48 -3.33301 -87.333 -14 -118 -32s-46 -37.333 -46 -58s5.33301 -38.5 16 -53.5s24.334 -25.5 41.001 -31.5c22 4 45.333 15 70 33s37 31 37 39zM366.999 133c0 -47.333 17.334 -83.333 52.001 -108l-52 -38l-81 73
c-52.667 -48 -101.334 -72 -146.001 -72c-29.333 0 -54.5 9.33301 -75.5 28s-31.5 42.167 -31.5 70.5s8.5 51.833 25.5 70.5s39.5 33 67.5 43c48 18 101 29.333 159 34v94c0 55.333 -32 83 -96 83c-36.667 0 -80 -8 -130 -24l-9 25c13.333 10.667 36.5 22 69.5 34
s64.5 18 94.5 18s55.167 -4 75.5 -12s35.333 -17 45 -27s17.167 -23.667 22.5 -41s8.33301 -31 9 -41s1 -23.333 1 -40v-170zM189 507h-40l172 188l56 -50z" />
    <glyph glyph-name="acircumflex" unicode="&#xe2;" horiz-adv-x="444" 
d="M378 507h-34l-122 103l-121 -103h-34l124 167h62zM285 106l-0.000976562 103c-48 -3.33301 -87.333 -14 -118 -32s-46 -37.333 -46 -58s5.33301 -38.5 16 -53.5s24.334 -25.5 41.001 -31.5c22 4 45.333 15 70 33s37 31 37 39zM366.999 133
c0 -47.333 17.334 -83.333 52.001 -108l-52 -38l-81 73c-52.667 -48 -101.334 -72 -146.001 -72c-29.333 0 -54.5 9.33301 -75.5 28s-31.5 42.167 -31.5 70.5s8.5 51.833 25.5 70.5s39.5 33 67.5 43c48 18 101 29.333 159 34v94c0 55.333 -32 83 -96 83
c-36.667 0 -80 -8 -130 -24l-9 25c13.333 10.667 36.5 22 69.5 34s64.5 18 94.5 18s55.167 -4 75.5 -12s35.333 -17 45 -27s17.167 -23.667 22.5 -41s8.33301 -31 9 -41s1 -23.333 1 -40v-170z" />
    <glyph glyph-name="atilde" unicode="&#xe3;" horiz-adv-x="444" 
d="M285 106l-0.000976562 103c-48 -3.33301 -87.333 -14 -118 -32s-46 -37.333 -46 -58s5.33301 -38.5 16 -53.5s24.334 -25.5 41.001 -31.5c22 4 45.333 15 70 33s37 31 37 39zM366.999 133c0 -47.333 17.334 -83.333 52.001 -108l-52 -38l-81 73
c-52.667 -48 -101.334 -72 -146.001 -72c-29.333 0 -54.5 9.33301 -75.5 28s-31.5 42.167 -31.5 70.5s8.5 51.833 25.5 70.5s39.5 33 67.5 43c48 18 101 29.333 159 34v94c0 55.333 -32 83 -96 83c-36.667 0 -80 -8 -130 -24l-9 25c13.333 10.667 36.5 22 69.5 34
s64.5 18 94.5 18s55.167 -4 75.5 -12s35.333 -17 45 -27s17.167 -23.667 22.5 -41s8.33301 -31 9 -41s1 -23.333 1 -40v-170zM206.5 552.5c-33.667 13.667 -54.834 20.5 -63.501 20.5s-16.667 -3.33301 -24 -10s-16.666 -17.667 -27.999 -33l-27 15c18 43.333 52 73 102 89
c14.667 0 38.834 -6.83301 72.501 -20.5s54.834 -20.5 63.501 -20.5s16.667 3.33301 24 10s16.666 17.667 27.999 33l27 -15c-18 -43.333 -52 -73 -102 -89c-14.667 0 -38.834 6.83301 -72.501 20.5z" />
    <glyph glyph-name="adieresis" unicode="&#xe4;" horiz-adv-x="444" 
d="M367 133c0 -47.333 17.334 -83.333 52.001 -108l-52 -38l-81 73c-52.667 -48 -101.334 -72 -146.001 -72c-29.333 0 -54.5 9.33301 -75.5 28s-31.5 42.167 -31.5 70.5s8.5 51.833 25.5 70.5s39.5 33 67.5 43c48 18 101 29.333 159 34v94c0 55.333 -32 83 -96 83
c-36.667 0 -80 -8 -130 -24l-9 25c13.333 10.667 36.5 22 69.5 34s64.5 18 94.5 18s55.167 -4 75.5 -12s35.333 -17 45 -27s17.167 -23.667 22.5 -41s8.33301 -31 9 -41s1 -23.333 1 -40v-170zM285.001 106l-0.000976562 103c-48 -3.33301 -87.333 -14 -118 -32
s-46 -37.333 -46 -58s5.33301 -38.5 16 -53.5s24.334 -25.5 41.001 -31.5c22 4 45.333 15 70 33s37 31 37 39zM128 541l-12.002 -0.000976562c-4 0 -10 1.33301 -18 4c-17.333 8.66699 -26.666 22.667 -27.999 42v4c0 21.333 9.33301 36.333 28 45
c6.66699 3.33301 13.334 5 20.001 5c13.333 0 22.333 -2.33301 27 -7l9 -6c7.33301 -7.33301 11 -12.666 11 -15.999c2 -3.33301 3.66699 -9 5 -17v-4c0 -18 -8.33301 -32.667 -25 -44zM266.998 590.999c0 14 4.83301 25.833 14.5 35.5s21.5 14.5 35.5 14.5
s25.833 -4.83301 35.5 -14.5s14.5 -21.5 14.5 -35.5s-4.83301 -25.833 -14.5 -35.5s-21.5 -14.5 -35.5 -14.5s-25.833 4.83301 -35.5 14.5s-14.5 21.5 -14.5 35.5z" />
    <glyph glyph-name="aring" unicode="&#xe5;" horiz-adv-x="444" 
d="M123 611c0 27.333 9.5 50.833 28.5 70.5s42.333 29.5 70 29.5s51.334 -9.83301 71.001 -29.5s29.5 -43.167 29.5 -70.5s-9.83301 -50.666 -29.5 -69.999s-43.334 -29 -71.001 -29s-51 9.66699 -70 29s-28.5 42.666 -28.5 69.999zM269 657.5
c-12.667 13 -28.833 19.5 -48.5 19.5s-35.167 -7.16699 -46.5 -21.5s-17 -29 -17 -44s5.5 -29.667 16.5 -44s26.333 -21.5 46 -21.5s36 6.33301 49 19s19.5 28 19.5 46s-6.33301 33.5 -19 46.5zM285.001 106l-0.000976562 103c-48 -3.33301 -87.333 -14 -118 -32
s-46 -37.333 -46 -58s5.33301 -38.5 16 -53.5s24.334 -25.5 41.001 -31.5c22 4 45.333 15 70 33s37 31 37 39zM367 133c0 -47.333 17.334 -83.333 52.001 -108l-52 -38l-81 73c-52.667 -48 -101.334 -72 -146.001 -72c-29.333 0 -54.5 9.33301 -75.5 28
s-31.5 42.167 -31.5 70.5s8.5 51.833 25.5 70.5s39.5 33 67.5 43c48 18 101 29.333 159 34v94c0 55.333 -32 83 -96 83c-36.667 0 -80 -8 -130 -24l-9 25c13.333 10.667 36.5 22 69.5 34s64.5 18 94.5 18s55.167 -4 75.5 -12s35.333 -17 45 -27s17.167 -23.667 22.5 -41
s8.33301 -31 9 -41s1 -23.333 1 -40v-170z" />
    <glyph glyph-name="ae" unicode="&#xe6;" horiz-adv-x="704" 
d="M216 464c70 0 115.334 -22 136.001 -66c42.667 44 96 66 160 66c48.667 0 89.334 -19.333 122.001 -58s49 -92.334 49 -161.001h-316v-47c7.33301 -55.333 26.333 -95.166 57 -119.499s67.667 -36.5 111 -36.5s84.666 9 123.999 27v-35
c-54 -30.667 -106.333 -46 -157 -46c-84.667 0 -146.334 31.333 -185.001 94c-27.333 -25.333 -57.5 -47.333 -90.5 -66s-63 -28 -90 -28s-51 9.33301 -72 28s-31.5 42.167 -31.5 70.5s8.5 51.833 25.5 70.5s39.5 33 67.5 43c48 18 101 29.333 159 34v92
c0 56.667 -32 85 -96 85c-36.667 0 -80 -8 -130 -24l-9 25c13.333 10.667 36.5 22 69.5 34s65.167 18 96.5 18zM461.001 417c-23.333 -11.333 -43.333 -29.666 -60 -54.999s-27.667 -54.333 -33 -87h234c-2 28 -8.5 52.167 -19.5 72.5s-24.167 35.166 -39.5 44.499
c-28.667 16.667 -56 25 -82 25zM167.001 177c-30.667 -18 -46 -37.334 -46 -58.001s5.33301 -38.5 16 -53.5s24.334 -25.5 41.001 -31.5c20 4 43.667 15.667 71 35s44.666 35.333 51.999 48c-10.667 28.667 -16 59.334 -16 92.001c-48 -3.33301 -87.333 -14 -118 -32z" />
    <glyph glyph-name="ccedilla" unicode="&#xe7;" horiz-adv-x="436" 
d="M26 212c0 75.333 20.499 136.168 61.499 182.501s93.167 69.5 156.5 69.5c35.333 0 75 -8.66699 119 -26l-10 -66c-58.667 30.667 -109 46 -151 46c-34.667 -17.333 -59.667 -45.333 -75 -84s-23 -76.667 -23 -114c0 -50.667 14.833 -92.834 44.5 -126.501
s65.167 -50.5 106.5 -50.5s79.333 9 114 27v-35c-48 -31.333 -95 -47 -141 -47h-10l-20 -53c22 0 43.333 -5.83301 64 -17.5s36.667 -28.167 48 -49.5c0 -22.667 -11.833 -42.167 -35.5 -58.5s-52 -24.5 -85 -24.5s-62.5 5.33301 -88.5 16l14 31
c19.333 -8 38.5 -12 57.5 -12s34.167 3.83301 45.5 11.5s17 16.834 17 27.501c-14 27.333 -43 41 -87 41l37 92c-47.333 9.33301 -85.666 33.166 -114.999 71.499s-44 87.833 -44 148.5z" />
    <glyph glyph-name="egrave" unicode="&#xe8;" horiz-adv-x="444" 
d="M105 246c0 -72 16.168 -123.834 48.501 -155.501s71.666 -47.5 117.999 -47.5s89.166 9 128.499 27v-35c-54.667 -31.333 -107 -47 -157 -47c-64.667 0 -117 19.667 -157 59s-60 96.333 -60 171s22.167 134.334 66.5 179.001s97.833 67 160.5 67
c48.667 0 89.334 -19.167 122.001 -57.5s49 -91.833 49 -160.5h-319zM202.001 416.999c-23.333 -11.333 -43.334 -29.5 -60.001 -54.5s-27.667 -53.833 -33 -86.5h234c-2 28 -8.5 52 -19.5 72s-24.167 34.667 -39.5 44c-27.333 16.667 -54.666 25 -81.999 25zM299 506.999
h-40l-188 138l56 50z" />
    <glyph glyph-name="eacute" unicode="&#xe9;" horiz-adv-x="444" 
d="M105 246c0 -72 16.168 -123.834 48.501 -155.501s71.666 -47.5 117.999 -47.5s89.166 9 128.499 27v-35c-54.667 -31.333 -107 -47 -157 -47c-64.667 0 -117 19.667 -157 59s-60 96.333 -60 171s22.167 134.334 66.5 179.001s97.833 67 160.5 67
c48.667 0 89.334 -19.167 122.001 -57.5s49 -91.833 49 -160.5h-319zM202.001 416.999c-23.333 -11.333 -43.334 -29.5 -60.001 -54.5s-27.667 -53.833 -33 -86.5h234c-2 28 -8.5 52 -19.5 72s-24.167 34.667 -39.5 44c-27.333 16.667 -54.666 25 -81.999 25zM231 506.999
h-40l172 188l56 -50z" />
    <glyph glyph-name="ecircumflex" unicode="&#xea;" horiz-adv-x="444" 
d="M378 507h-34l-122 103l-121 -103h-34l124 167h62zM105 246c0 -72 16.168 -123.834 48.501 -155.501s71.666 -47.5 117.999 -47.5s89.166 9 128.499 27v-35c-54.667 -31.333 -107 -47 -157 -47c-64.667 0 -117 19.667 -157 59s-60 96.333 -60 171
s22.167 134.334 66.5 179.001s97.833 67 160.5 67c48.667 0 89.334 -19.167 122.001 -57.5s49 -91.833 49 -160.5h-319zM202.001 416.999c-23.333 -11.333 -43.334 -29.5 -60.001 -54.5s-27.667 -53.833 -33 -86.5h234c-2 28 -8.5 52 -19.5 72s-24.167 34.667 -39.5 44
c-27.333 16.667 -54.666 25 -81.999 25z" />
    <glyph glyph-name="edieresis" unicode="&#xeb;" horiz-adv-x="444" 
d="M105 246c0 -72 16.168 -123.834 48.501 -155.501s71.666 -47.5 117.999 -47.5s89.166 9 128.499 27v-35c-54.667 -31.333 -107 -47 -157 -47c-64.667 0 -117 19.667 -157 59s-60 96.333 -60 171s22.167 134.334 66.5 179.001s97.833 67 160.5 67
c48.667 0 89.334 -19.167 122.001 -57.5s49 -91.833 49 -160.5h-319zM202.001 416.999c-23.333 -11.333 -43.334 -29.5 -60.001 -54.5s-27.667 -53.833 -33 -86.5h234c-2 28 -8.5 52 -19.5 72s-24.167 34.667 -39.5 44c-27.333 16.667 -54.666 25 -81.999 25zM86 582.999
l0.000976562 11.999c0 4.66699 1.33301 10.334 4 17.001l6 10c12.667 12.667 24 19 34 19c18 0 32.333 -5.33301 43 -16l6 -9c1.33301 -1.33301 2.66602 -3.33301 3.99902 -6s2 -5.33398 2 -8.00098s0.333008 -5 1 -7v-4c0 -12 -2.33301 -20.333 -7 -25
c-3.33301 -7.33301 -6.33301 -11.333 -9 -12l-3 -3c-2.66699 -1.33301 -4.66699 -2.66602 -6 -3.99902c-9.33301 -4 -19 -6 -29 -6s-19.667 4 -29 12s-15 18 -17 30zM283.001 590.998c0 14 4.83301 25.833 14.5 35.5s21.5 14.5 35.5 14.5s25.833 -4.83301 35.5 -14.5
s14.5 -21.5 14.5 -35.5s-4.83301 -25.833 -14.5 -35.5s-21.5 -14.5 -35.5 -14.5s-25.833 4.83301 -35.5 14.5s-14.5 21.5 -14.5 35.5z" />
    <glyph glyph-name="igrave" unicode="&#xec;" horiz-adv-x="233" 
d="M197 507h-40l-188 138l56 50zM75 0v452h83v-452h-83z" />
    <glyph glyph-name="iacute" unicode="&#xed;" horiz-adv-x="233" 
d="M105 507h-40l172 188l56 -50zM75 0v452h83v-452h-83z" />
    <glyph glyph-name="icircumflex" unicode="&#xee;" horiz-adv-x="233" 
d="M75 0v452h83v-452h-83zM140 674l126 -167h-40l-110 93l-109 -93h-40l125 167h48z" />
    <glyph glyph-name="idieresis" unicode="&#xef;" horiz-adv-x="233" 
d="M75 0v452h83v-452h-83zM165 591c0 14 4.83301 25.833 14.5 35.5s21.5 14.5 35.5 14.5s25.833 -4.83301 35.5 -14.5s14.5 -21.5 14.5 -35.5s-4.83301 -25.833 -14.5 -35.5s-21.5 -14.5 -35.5 -14.5s-25.833 4.83301 -35.5 14.5s-14.5 21.5 -14.5 35.5zM52 628
c9.33301 -9.33301 14.1641 -16.667 14.4971 -22s0.833008 -9 1.5 -11v-4v-10c-1.33301 -6.66699 -3.66602 -11.667 -6.99902 -15c-3.33301 -7.33301 -6.33301 -11.333 -9 -12c-8.66699 -8.66699 -18.667 -13 -30 -13s-18.666 1 -21.999 3s-5.66602 3 -6.99902 3
c-1.33301 1.33301 -3.33301 2.66602 -6 3.99902c-4.66699 4 -8.66699 9 -12 15c-4.66699 3.33301 -7 9.83301 -7 19.5s1 17.5 3 23.5c8 21.333 23.667 32 47 32h4c2 -0.666992 3.83301 -1 5.5 -1s5 -1.16699 10 -3.5s9.83301 -5.16602 14.5 -8.49902z" />
    <glyph glyph-name="eth" unicode="&#xf0;" 
d="M471 249c0 -45.333 -7.16504 -85.3311 -21.498 -119.998s-33.5 -62 -57.5 -82c-47.333 -39.333 -100.833 -59 -160.5 -59s-108.667 20 -147 60s-57.5 95 -57.5 165c0 44.667 7.66699 84.167 23 118.5s34.666 60.5 57.999 78.5c45.333 36 88.666 54 129.999 54
c50.667 0 92 -20.667 124 -62l4 3c-12 69.333 -42.667 127.666 -92 174.999l-83 -45l-44 22l93 50c-31.333 21.333 -67.333 36.666 -108 45.999l12 30c51.333 -8.66699 97.333 -26.334 138 -53.001l92 51l44 -23l-99 -54c49.333 -41.333 87 -93.166 113 -155.499
s39 -128.833 39 -199.5zM248.002 22.002c29.333 0 54.333 11.333 75 34c37.333 40 56 93.167 56 159.5s-11.333 118 -34 155s-59.667 55.5 -111 55.5c-38 -14.667 -66.833 -40.5 -86.5 -77.5s-29.5 -81.667 -29.5 -134s10.667 -97.5 32 -135.5s54 -57 98 -57z" />
    <glyph glyph-name="ntilde" unicode="&#xf1;" 
d="M235.5 446c21 12 45.832 18.001 74.499 18.001s55.167 -11.333 79.5 -34s36.5 -61.667 36.5 -117v-313h-85v303c0 32.667 -5.83301 57.167 -17.5 73.5s-31.667 24.5 -60 24.5s-61.166 -18.667 -98.499 -56v-345h-85v314c0 45.333 -17 81.666 -51 108.999l51 38l82 -73
c28 26.667 52.5 46 73.5 58zM234.499 552.501c-33.667 13.667 -54.834 20.5 -63.501 20.5s-16.667 -3.33301 -24 -10s-16.666 -17.667 -27.999 -33l-27 15c18 43.333 52 73 102 89c14.667 0 38.834 -6.83301 72.501 -20.5s54.834 -20.5 63.501 -20.5s16.667 3.33301 24 10
s16.666 17.667 27.999 33l27 -15c-18 -43.333 -52 -73 -102 -89c-14.667 0 -38.834 6.83301 -72.501 20.5z" />
    <glyph glyph-name="ograve" unicode="&#xf2;" 
d="M413.5 404c38.333 -40 57.498 -95 57.498 -165c0 -44.667 -7.66699 -84 -23 -118s-35.333 -60.333 -60 -79c-47.333 -36 -100.166 -54 -158.499 -54s-106.666 20 -144.999 60s-57.5 95 -57.5 165c0 44.667 7.5 84 22.5 118s34.833 60.333 59.5 79
c47.333 36 100.333 54 159 54s107.167 -20 145.5 -60zM247.998 22c29.333 0 54.333 11.333 75 34c37.333 40 56 93.167 56 159.5s-11.333 118 -34 155s-59.667 55.5 -111 55.5c-38 -14.667 -66.833 -40.5 -86.5 -77.5s-29.5 -81.667 -29.5 -134s10.667 -97.5 32 -135.5
s54 -57 98 -57zM325.998 507h-40l-188 138l56 50z" />
    <glyph glyph-name="oacute" unicode="&#xf3;" 
d="M413.5 404c38.333 -40 57.498 -95 57.498 -165c0 -44.667 -7.66699 -84 -23 -118s-35.333 -60.333 -60 -79c-47.333 -36 -100.166 -54 -158.499 -54s-106.666 20 -144.999 60s-57.5 95 -57.5 165c0 44.667 7.5 84 22.5 118s34.833 60.333 59.5 79
c47.333 36 100.333 54 159 54s107.167 -20 145.5 -60zM247.998 22c29.333 0 54.333 11.333 75 34c37.333 40 56 93.167 56 159.5s-11.333 118 -34 155s-59.667 55.5 -111 55.5c-38 -14.667 -66.833 -40.5 -86.5 -77.5s-29.5 -81.667 -29.5 -134s10.667 -97.5 32 -135.5
s54 -57 98 -57zM216.998 507h-40l172 188l56 -50z" />
    <glyph glyph-name="ocircumflex" unicode="&#xf4;" 
d="M413.5 404c38.333 -40 57.498 -95 57.498 -165c0 -44.667 -7.66699 -84 -23 -118s-35.333 -60.333 -60 -79c-47.333 -36 -100.166 -54 -158.499 -54s-106.666 20 -144.999 60s-57.5 95 -57.5 165c0 44.667 7.5 84 22.5 118s34.833 60.333 59.5 79
c47.333 36 100.333 54 159 54s107.167 -20 145.5 -60zM247.998 22c29.333 0 54.333 11.333 75 34c37.333 40 56 93.167 56 159.5s-11.333 118 -34 155s-59.667 55.5 -111 55.5c-38 -14.667 -66.833 -40.5 -86.5 -77.5s-29.5 -81.667 -29.5 -134s10.667 -97.5 32 -135.5
s54 -57 98 -57zM273.998 674l126 -167h-40l-110 93l-109 -93h-40l125 167h48z" />
    <glyph glyph-name="otilde" unicode="&#xf5;" 
d="M413.5 404c38.333 -40 57.498 -95 57.498 -165c0 -44.667 -7.66699 -84 -23 -118s-35.333 -60.333 -60 -79c-47.333 -36 -100.166 -54 -158.499 -54s-106.666 20 -144.999 60s-57.5 95 -57.5 165c0 44.667 7.5 84 22.5 118s34.833 60.333 59.5 79
c47.333 36 100.333 54 159 54s107.167 -20 145.5 -60zM247.998 22c29.333 0 54.333 11.333 75 34c37.333 40 56 93.167 56 159.5s-11.333 118 -34 155s-59.667 55.5 -111 55.5c-38 -14.667 -66.833 -40.5 -86.5 -77.5s-29.5 -81.667 -29.5 -134s10.667 -97.5 32 -135.5
s54 -57 98 -57zM234.498 552.5c-33.667 13.667 -54.834 20.5 -63.501 20.5s-16.667 -3.33301 -24 -10s-16.666 -17.667 -27.999 -33l-27 15c18 43.333 52 73 102 89c14.667 0 38.834 -6.83301 72.501 -20.5s54.834 -20.5 63.501 -20.5s16.667 3.33301 24 10
s16.666 17.667 27.999 33l27 -15c-18 -43.333 -52 -73 -102 -89c-14.667 0 -38.834 6.83301 -72.501 20.5z" />
    <glyph glyph-name="odieresis" unicode="&#xf6;" 
d="M413.5 404c38.333 -40 57.498 -95 57.498 -165c0 -44.667 -7.66699 -84 -23 -118s-35.333 -60.333 -60 -79c-47.333 -36 -100.166 -54 -158.499 -54s-106.666 20 -144.999 60s-57.5 95 -57.5 165c0 44.667 7.5 84 22.5 118s34.833 60.333 59.5 79
c47.333 36 100.333 54 159 54s107.167 -20 145.5 -60zM247.998 22c29.333 0 54.333 11.333 75 34c37.333 40 56 93.167 56 159.5s-11.333 118 -34 155s-59.667 55.5 -111 55.5c-38 -14.667 -66.833 -40.5 -86.5 -77.5s-29.5 -81.667 -29.5 -134s10.667 -97.5 32 -135.5
s54 -57 98 -57zM159.998 541h-12c-12.667 1.33301 -24.667 7.66602 -36 18.999c-5.33301 6.66699 -8.66602 15.667 -9.99902 27v4c0 14 4.83301 25.833 14.5 35.5s21.5 14.5 35.5 14.5c3.33301 0 6.66602 -0.333008 9.99902 -1c6 0 11 -2 15 -6
c6.66699 -3.33301 11.334 -7.33301 14.001 -12c3.33301 -3.33301 5.33301 -6.66602 6 -9.99902c2.66699 -4 4 -7.33301 4 -10s0.333008 -5 1 -7v-4v-10c-1.33301 -8 -5 -15 -11 -21c-1.33301 -3.33301 -3 -5.33301 -5 -6c-6.66699 -6.66699 -15.334 -11 -26.001 -13z
M298.998 591c0 14 4.83301 25.833 14.5 35.5s21.5 14.5 35.5 14.5s25.833 -4.83301 35.5 -14.5s14.5 -21.5 14.5 -35.5s-4.83301 -25.833 -14.5 -35.5s-21.5 -14.5 -35.5 -14.5s-25.833 4.83301 -35.5 14.5s-14.5 21.5 -14.5 35.5z" />
    <glyph glyph-name="divide" unicode="&#xf7;" horiz-adv-x="564" 
d="M505 224h-446v58h446v-58zM282 388c-11.333 0 -22.333 4.16602 -33 12.499s-16 19.833 -16 34.5s4.83301 26.834 14.5 36.501s21.167 14.5 34.5 14.5s25 -5 35 -15s15 -22 15 -36s-5.5 -25.333 -16.5 -34s-22.167 -13 -33.5 -13zM282 19.999
c-11.333 0 -22.333 4.16602 -33 12.499s-16 19.833 -16 34.5s4.83301 26.834 14.5 36.501s21.167 14.5 34.5 14.5s25 -5 35 -15s15 -22 15 -36s-5.5 -25.333 -16.5 -34s-22.167 -13 -33.5 -13z" />
    <glyph glyph-name="oslash" unicode="&#xf8;" 
d="M186 451c26.667 8.66699 53.667 12.999 81 12.999s53.333 -4.66699 78 -14l53 101h39l-61 -117c63.333 -38.667 95 -103.667 95 -195c0 -44.667 -7.66699 -84 -23 -118s-35.333 -60.333 -60 -79c-47.333 -36 -100.333 -54 -159 -54c-28.667 0 -55.334 5 -80.001 15
l-60 -115h-37l68 130c-62 40 -93 105 -93 195c0 44.667 7.5 84 22.5 118s34.833 60.333 59.5 79s50.334 32.334 77.001 41.001zM248 21.999c29.333 0 54.333 11.333 75 34c37.333 40 56 94.167 56 162.5s-12 119.5 -36 153.5l-169 -323c20 -18 44.667 -27 74 -27z
M147.5 348.499c-19.667 -37 -29.501 -82.332 -29.501 -135.999s11 -98.834 33 -135.501l168 322c-23.333 18 -51.666 27 -84.999 27c-38 -14.667 -66.833 -40.5 -86.5 -77.5z" />
    <glyph glyph-name="ugrave" unicode="&#xf9;" 
d="M397 134c0 -46 17.332 -82.333 51.999 -109l-52 -37l-81 73c-27.333 -26 -51.666 -44.667 -72.999 -56s-46.5 -17 -75.5 -17s-55.667 11.167 -80 33.5s-36.5 60.833 -36.5 115.5v315h85v-320c0 -32 5.83301 -56.167 17.5 -72.5s32 -24.5 61 -24.5s61.5 21.333 97.5 64
v353h85v-318zM325.999 507h-40l-188 138l56 50z" />
    <glyph glyph-name="uacute" unicode="&#xfa;" 
d="M397 134c0 -46 17.332 -82.333 51.999 -109l-52 -37l-81 73c-27.333 -26 -51.666 -44.667 -72.999 -56s-46.5 -17 -75.5 -17s-55.667 11.167 -80 33.5s-36.5 60.833 -36.5 115.5v315h85v-320c0 -32 5.83301 -56.167 17.5 -72.5s32 -24.5 61 -24.5s61.5 21.333 97.5 64
v353h85v-318zM216.999 507h-40l172 188l56 -50z" />
    <glyph glyph-name="ucircumflex" unicode="&#xfb;" 
d="M397 134c0 -46 17.332 -82.333 51.999 -109l-52 -37l-81 73c-27.333 -26 -51.666 -44.667 -72.999 -56s-46.5 -17 -75.5 -17s-55.667 11.167 -80 33.5s-36.5 60.833 -36.5 115.5v315h85v-320c0 -32 5.83301 -56.167 17.5 -72.5s32 -24.5 61 -24.5s61.5 21.333 97.5 64
v353h85v-318zM251.999 674l126 -167h-40l-110 93l-109 -93h-40l125 167h48z" />
    <glyph glyph-name="udieresis" unicode="&#xfc;" 
d="M397 134c0 -46 17.332 -82.333 51.999 -109l-52 -37l-81 73c-27.333 -26 -51.666 -44.667 -72.999 -56s-46.5 -17 -75.5 -17s-55.667 11.167 -80 33.5s-36.5 60.833 -36.5 115.5v315h85v-320c0 -32 5.83301 -56.167 17.5 -72.5s32 -24.5 61 -24.5s61.5 21.333 97.5 64
v353h85v-318zM274.999 591c0 14 4.83301 25.833 14.5 35.5s21.5 14.5 35.5 14.5s25.833 -4.83301 35.5 -14.5s14.5 -21.5 14.5 -35.5s-4.83301 -25.833 -14.5 -35.5s-21.5 -14.5 -35.5 -14.5s-25.833 4.83301 -35.5 14.5s-14.5 21.5 -14.5 35.5zM127.999 541
c-20.667 0 -35.333 8.33203 -44 24.999c0 0.666992 -0.666992 1.66699 -2 3c-2.66699 8 -4 14 -4 18v4c0 20 8.33301 34.333 25 43c4.66699 4.66699 13 7 25 7c17.333 0 30.333 -6.33301 39 -19c7.33301 -10 11 -20.333 11 -31v-4c0 -11.333 -6.33301 -23.333 -19 -36
c-2.66699 -1.33301 -4.66699 -2.66602 -6 -3.99902l-7 -3l-10 -3h-8z" />
    <glyph glyph-name="yacute" unicode="&#xfd;" horiz-adv-x="441" 
d="M382 452h38l-171 -467c-22 -61.333 -55 -110.666 -99 -147.999s-92.333 -56.333 -145 -57l10 50c90 3.33301 160 61.666 210 174.999l-203 447h89l153 -339zM257 507h-40l172 188l56 -50z" />
    <glyph glyph-name="thorn" unicode="&#xfe;" 
d="M231.5 440.5c28.333 14.333 52.166 21.501 71.499 21.501s37.833 -3.5 55.5 -10.5s35.834 -18.667 54.501 -35s33.834 -41.5 45.501 -75.5s17.5 -76.833 17.5 -128.5s-16.667 -102.834 -50 -153.501s-77.333 -76 -132 -76c-43.333 0 -88 15.667 -134 47v-242h-85v895h85
v-295c19.333 20.667 43.166 38.167 71.499 52.5zM160 327.001l-0.000976562 -268.001c39.333 -18.667 76.166 -28 110.499 -28s62 16.333 83 49s31.5 75.834 31.5 129.501s-8.5 99.334 -25.5 137.001s-38.167 60.5 -63.5 68.5
c-23.333 -2.66699 -46.166 -10.834 -68.499 -24.501s-39.166 -26.667 -50.499 -39s-17 -20.5 -17 -24.5z" />
    <glyph glyph-name="ydieresis" unicode="&#xff;" horiz-adv-x="441" 
d="M382 452h38l-171 -467c-22 -61.333 -55 -110.666 -99 -147.999s-92.333 -56.333 -145 -57l10 50c90 3.33301 160 61.666 210 174.999l-203 447h89l153 -339zM298 591c0 14 4.83301 25.833 14.5 35.5s21.5 14.5 35.5 14.5s25.833 -4.83301 35.5 -14.5
s14.5 -21.5 14.5 -35.5s-4.83301 -25.833 -14.5 -35.5s-21.5 -14.5 -35.5 -14.5s-25.833 4.83301 -35.5 14.5s-14.5 21.5 -14.5 35.5zM159 541h-7.99902c-16.667 0 -30 6.33301 -40 19l-6 9c-2.66699 8 -4 14 -4 18v4c0 8.66699 1 14.667 3 18s3 5.66602 3 6.99902
c1.33301 1.33301 2.66602 3.33301 3.99902 6c12 12 22.667 18 32 18c2 0.666992 3.33301 1 4 1h8c2 -0.666992 3.83301 -1 5.5 -1s4.5 -0.666992 8.5 -2c14 -6 23.667 -15.667 29 -29c2 -6 3 -12 3 -18v-4c0 -0.666992 -0.333008 -2.33398 -1 -5.00098
c-0.666992 -7.33301 -2.66699 -12.666 -6 -15.999c-5.33301 -13.333 -17 -21.666 -35 -24.999z" />
    <glyph glyph-name="dotlessi" unicode="&#x131;" horiz-adv-x="233" 
d="M75 0v452h83v-452h-83z" />
    <glyph glyph-name="Lslash" unicode="&#x141;" horiz-adv-x="487" 
d="M90 0l-0.000976562 251l-87 -55v49l87 55v362h98v-299l125 80v-49l-125 -80v-260c40.667 -12 73.334 -18 98.001 -18l181 31l-12 -67h-365z" />
    <glyph glyph-name="lslash" unicode="&#x142;" horiz-adv-x="234" 
d="M159 683v-234l65 44v-49l-65 -44v-400h-84v343l-65 -43v49l65 43v291h84z" />
    <glyph glyph-name="OE" unicode="&#x152;" horiz-adv-x="849" 
d="M343 0c-88.667 0 -162.335 27.667 -221.002 83s-88 131.666 -88 228.999c0 50.667 7.83301 96.334 23.5 137.001s35.834 74 60.501 100s53.334 47.667 86.001 65c61.333 32 127.333 48 198 48h376l-10 -67l-161 31c-32.667 0 -68.667 -5.66699 -108 -17v-243h197v-38
h-197v-292l295 31l-10 -67h-441zM371.999 623c-74 0 -130.667 -26.667 -170 -80s-59 -123.5 -59 -210.5s20.833 -158.833 62.5 -215.5s97.167 -85 166.5 -85c13.333 0 23.333 0.333008 30 1v587c-10 2 -20 3 -30 3z" />
    <glyph glyph-name="oe" unicode="&#x153;" horiz-adv-x="791" 
d="M263 464c71.333 0 123.001 -30.666 155.001 -91.999c44 61.333 104.333 92 181 92c48.667 0 89.334 -19.333 122.001 -58s49 -92.334 49 -161.001h-319c0 -72 16.167 -123.833 48.5 -155.5s71.666 -47.5 117.999 -47.5s89.166 9 128.499 27v-35
c-53.333 -30.667 -105.666 -46 -156.999 -46c-84 0 -145.333 30.333 -184 91c-40 -60.667 -100 -91 -180 -91c-56.667 0 -103.5 19.833 -140.5 59.5s-55.5 94.5 -55.5 164.5c0 44.667 7.33301 84.167 22 118.5s34 60.833 58 79.5c47.333 36 98.666 54 153.999 54z
M548.001 417.001c-23.333 -11.333 -43.333 -29.666 -60 -54.999s-27.667 -54.333 -33 -87h234c-2 28 -8.5 52.167 -19.5 72.5s-24.167 35.166 -39.5 44.499c-28.667 16.667 -56 25 -82 25zM243.001 31.001c37.333 0 68 19.832 92 59.499s36 85.5 36 137.5
s-12.5 96.333 -37.5 133s-60.5 55 -106.5 55c-36 -14 -63.333 -39.167 -82 -75.5s-28 -75.166 -28 -116.499c0 -128.667 42 -193 126 -193z" />
    <glyph glyph-name="Scaron" unicode="&#x160;" horiz-adv-x="556" 
d="M162 547c0 -29.333 11.5 -56.4951 34.5 -81.4951s51 -47 84 -66l98.5 -58c32.667 -19.667 60.5 -43.834 83.5 -72.501s34.5 -60.334 34.5 -95.001c0 -54.667 -20.167 -99.334 -60.5 -134.001s-94.833 -52 -163.5 -52s-136.667 13 -204 39v47
c68 -34 125.833 -51 173.5 -51s84.834 11.667 111.501 35s40 55.666 40 96.999c0 28 -11 53.5 -33 76.5s-48.667 43 -80 60l-94 52.5c-31.333 18 -58 40.833 -80 68.5s-33 61.167 -33 100.5s17.5 76 52.5 110s87.167 51 156.5 51c45.333 0 102.666 -10.333 171.999 -31
l-10 -68c-90 38.667 -167 58 -231 58c-34.667 -16.667 -52 -45.334 -52 -86.001zM251 718.005l-126 167h40l110 -93l109 93h40l-125 -167h-48z" />
    <glyph glyph-name="scaron" unicode="&#x161;" horiz-adv-x="372" 
d="M126.5 402.5c-11 -13 -16.5 -27.667 -16.5 -44s7.83301 -32 23.5 -47s34.667 -28.333 57 -40l66.5 -36.5c22 -12.667 40.833 -29 56.5 -49s23.5 -42.333 23.5 -67c0 -37.333 -15 -68.5 -45 -93.5s-70.833 -37.5 -122.5 -37.5s-98.834 12 -141.501 36v38
c45.333 -22.667 86.333 -34 123 -34s63.334 7.33301 80.001 22s25 31.5 25 50.5s-7.5 36 -22.5 51s-33.333 28.167 -55 39.5s-43.167 23.333 -64.5 36s-39.5 29 -54.5 49s-22.5 44.167 -22.5 72.5s11.5 54.666 34.5 78.999s58.5 36.5 106.5 36.5s94 -8.66699 138 -26
l-10 -66c-49.333 26.667 -95 43.334 -137 50.001c-17.333 0 -31.5 -6.5 -42.5 -19.5zM163 506l-126 167h40l110 -93l109 93h40l-125 -167h-48z" />
    <glyph glyph-name="Ydieresis" unicode="&#x178;" horiz-adv-x="557" 
d="M343 0h-97v246l-226 416h109l185 -380l173 380h50l-194 -411v-251zM364 761c0 14 4.83301 25.833 14.5 35.5s21.5 14.5 35.5 14.5s25.833 -4.83301 35.5 -14.5s14.5 -21.5 14.5 -35.5s-4.83301 -25.833 -14.5 -35.5s-21.5 -14.5 -35.5 -14.5s-25.833 4.83301 -35.5 14.5
s-14.5 21.5 -14.5 35.5zM167 757l-0.000976562 11.999c2 9.33301 5.33301 17 10 23l9 8c8.66699 6.66699 15 10.167 19 10.5s8.33301 0.5 13 0.5c8 0 14.667 -1.66699 20 -5c6.66699 -1.33301 12.834 -6 18.501 -14s8.66699 -14 9 -18s0.833008 -7 1.5 -9v-8
c0 -10 -3.66699 -19 -11 -27l-2 -3l-6 -6c-2.66699 -1.33301 -4.66699 -2.66602 -6 -3.99902l-7 -3l-10 -3h-16c-16 3.33301 -27 10.333 -33 21s-9 19 -9 25z" />
    <glyph glyph-name="Zcaron" unicode="&#x17d;" horiz-adv-x="571" 
d="M16 0l-0.000976562 10l382 599c-39.333 11.333 -75.666 17 -108.999 17l-206 -31l-10 67h468v-10l-394 -612l359 27l10 -67h-500zM276.999 718l-126 167h40l110 -93l109 93h40l-125 -167h-48z" />
    <glyph glyph-name="zcaron" unicode="&#x17e;" horiz-adv-x="444" 
d="M45 0v30l267 389l-246 -9l-10 42h347v-28l-266 -388l269 11l10 -47h-371zM219 506l-126 167h40l110 -93l109 93h40l-125 -167h-48z" />
    <glyph glyph-name="florin" unicode="&#x192;" 
d="M102 398l107.997 -0.000976562l6 55c14.667 148 80.334 222 197.001 222c24.667 0 50 -4 76 -12l-10 -65c-41.333 15.333 -76 25.666 -104 30.999c-23.333 -9.33301 -39.833 -26.166 -49.5 -50.499s-18.167 -66.166 -25.5 -125.499l-7 -55h132v-38h-137l-46 -354
c-9.33301 -70 -28.166 -120 -56.499 -150s-66.5 -45 -114.5 -45c-22 0 -46.667 5 -74 15l12 39c22.667 -5.33301 44.334 -8 65.001 -8c52.667 0 83 36.667 91 110l41 393h-104v38z" />
    <glyph glyph-name="circumflex" unicode="&#x2c6;" horiz-adv-x="333" 
d="M190 674l126 -167h-40l-110 93l-109 -93h-40l125 167h48z" />
    <glyph glyph-name="caron" unicode="&#x2c7;" horiz-adv-x="333" 
d="M142 506l-126 167h40l110 -93l109 93h40l-125 -167h-48z" />
    <glyph glyph-name="breve" unicode="&#x2d8;" horiz-adv-x="333" 
d="M164 507c-38.667 0 -71.335 13 -98.002 39s-40 63.667 -40 113v5h29c10.667 -64.667 47.667 -97 111 -97c36 0 62 10.333 78 31c8.66699 11.333 14.834 21 18.501 29s8.83398 20.333 15.501 37h29c-10 -104.667 -57.667 -157 -143 -157z" />
    <glyph glyph-name="dotaccent" unicode="&#x2d9;" horiz-adv-x="238" 
d="M79.5 668c9.66699 10 21.668 15.001 36.001 15.001s26.666 -5 36.999 -15s15.5 -22 15.5 -36s-5.16699 -26.333 -15.5 -37s-22.5 -16 -36.5 -16s-26 5.16699 -36 15.5s-15 22.666 -15 36.999s4.83301 26.5 14.5 36.5z" />
    <glyph glyph-name="ring" unicode="&#x2da;" horiz-adv-x="333" 
d="M67 611c0 27.333 9.5 50.833 28.5 70.5s42.333 29.5 70 29.5s51.334 -9.83301 71.001 -29.5s29.5 -43.167 29.5 -70.5s-9.83301 -50.666 -29.5 -69.999s-43.334 -29 -71.001 -29s-51 9.66699 -70 29s-28.5 42.666 -28.5 69.999zM213 657.5
c-12.667 13 -28.833 19.5 -48.5 19.5s-35.167 -7.16699 -46.5 -21.5s-17 -29 -17 -44s5.5 -29.667 16.5 -44s26.333 -21.5 46 -21.5s36 6.33301 49 19s19.5 28 19.5 46s-6.33301 33.5 -19 46.5z" />
    <glyph glyph-name="ogonek" unicode="&#x2db;" horiz-adv-x="333" 
d="M116 -75c0 -13.333 4.16797 -23.5 12.501 -30.5s19 -10.5 32 -10.5s26 4.16699 39 12.5s22.167 18.5 27.5 30.5l16 -7c-6.66699 -23.333 -19.834 -43.333 -39.501 -60s-40.5 -25 -62.5 -25s-40.667 6.66699 -56 20s-23 29.333 -23 48c0 40.667 18.667 73 56 97h44
c-30.667 -24 -46 -49 -46 -75z" />
    <glyph glyph-name="tilde" unicode="&#x2dc;" horiz-adv-x="333" 
d="M150.5 552.5c-33.667 13.667 -54.834 20.5 -63.501 20.5s-16.667 -3.33301 -24 -10s-16.666 -17.667 -27.999 -33l-27 15c18 43.333 52 73 102 89c14.667 0 38.834 -6.83301 72.501 -20.5s54.834 -20.5 63.501 -20.5s16.667 3.33301 24 10s16.666 17.667 27.999 33
l27 -15c-18 -43.333 -52 -73 -102 -89c-14.667 0 -38.834 6.83301 -72.501 20.5z" />
    <glyph glyph-name="hungarumlaut" unicode="&#x2dd;" horiz-adv-x="333" 
d="M35 507h-40l172 188l56 -50zM190 507h-40l172 188l56 -50z" />
    <glyph glyph-name="pi" unicode="&#x3c0;" horiz-adv-x="515" 
d="M174 0l-84.999 -0.000976562v398h-50v54h436v-54h-50v-260c0 -45.333 17 -81.666 51 -108.999l-51 -38c-40.667 22.667 -66.334 53 -77.001 91c-5.33301 20 -8 43.333 -8 70v246h-166v-398z" />
    <glyph glyph-name="endash" unicode="&#x2013;" 
d="M0 250h500v-49h-500v49z" />
    <glyph glyph-name="emdash" unicode="&#x2014;" horiz-adv-x="1000" 
d="M0 250h1000v-49h-1000v49z" />
    <glyph glyph-name="quoteleft" unicode="&#x2018;" horiz-adv-x="224" 
d="M50 513c0 72 37.333 128.667 112 170l12 -19c-44.667 -35.333 -67 -75 -67 -119c15.333 0 29.5 -5 42.5 -15s19.5 -23.333 19.5 -40c-9.33301 -14 -24.333 -26.5 -45 -37.5s-40.667 -17.5 -60 -19.5c-9.33301 27.333 -14 54 -14 80z" />
    <glyph glyph-name="quoteright" unicode="&#x2019;" horiz-adv-x="224" 
d="M174 597c0 -72 -37.333 -128.667 -112 -170l-12 19c44.667 35.333 67 75 67 119c-15.333 0 -29.5 5 -42.5 15s-19.5 23.333 -19.5 40c9.33301 14 24.333 26.5 45 37.5s40.667 17.5 60 19.5c9.33301 -27.333 14 -54 14 -80z" />
    <glyph glyph-name="quotesinglbase" unicode="&#x201a;" horiz-adv-x="224" 
d="M174 28c0 -72 -37.333 -128.667 -112 -170l-12 19c44.667 35.333 67 75 67 119c-15.333 0 -29.5 5 -42.5 15s-19.5 23.333 -19.5 40c9.33301 14 24.333 26.5 45 37.5s40.667 17.5 60 19.5c9.33301 -27.333 14 -54 14 -80z" />
    <glyph glyph-name="quotedblleft" unicode="&#x201c;" horiz-adv-x="394" 
d="M50 513c0 72 37.333 128.667 112 170l12 -19c-44.667 -35.333 -67 -75 -67 -119c15.333 0 29.5 -5 42.5 -15s19.5 -23.333 19.5 -40c-9.33301 -14 -24.333 -26.5 -45 -37.5s-40.667 -17.5 -60 -19.5c-9.33301 27.333 -14 54 -14 80zM220 513c0 72 37.333 128.667 112 170
l12 -19c-44.667 -35.333 -67 -75 -67 -119c15.333 0 29.5 -5 42.5 -15s19.5 -23.333 19.5 -40c-9.33301 -14 -24.333 -26.5 -45 -37.5s-40.667 -17.5 -60 -19.5c-9.33301 27.333 -14 54 -14 80z" />
    <glyph glyph-name="quotedblright" unicode="&#x201d;" horiz-adv-x="394" 
d="M174 597c0 -72 -37.333 -128.667 -112 -170l-12 19c44.667 35.333 67 75 67 119c-15.333 0 -29.5 5 -42.5 15s-19.5 23.333 -19.5 40c9.33301 14 24.333 26.5 45 37.5s40.667 17.5 60 19.5c9.33301 -27.333 14 -54 14 -80zM344 597c0 -72 -37.333 -128.667 -112 -170
l-12 19c44.667 35.333 67 75 67 119c-15.333 0 -29.5 5 -42.5 15s-19.5 23.333 -19.5 40c9.33301 14 24.333 26.5 45 37.5s40.667 17.5 60 19.5c9.33301 -27.333 14 -54 14 -80z" />
    <glyph glyph-name="quotedblbase" unicode="&#x201e;" horiz-adv-x="394" 
d="M174 28c0 -72 -37.333 -128.667 -112 -170l-12 19c44.667 35.333 67 75 67 119c-15.333 0 -29.5 5 -42.5 15s-19.5 23.333 -19.5 40c9.33301 14 24.333 26.5 45 37.5s40.667 17.5 60 19.5c9.33301 -27.333 14 -54 14 -80zM344 28c0 -72 -37.333 -128.667 -112 -170
l-12 19c44.667 35.333 67 75 67 119c-15.333 0 -29.5 5 -42.5 15s-19.5 23.333 -19.5 40c9.33301 14 24.333 26.5 45 37.5s40.667 17.5 60 19.5c9.33301 -27.333 14 -54 14 -80z" />
    <glyph glyph-name="dagger" unicode="&#x2020;" 
d="M442 481v-66h-58l-123 20l31 -118l-30 -466h-21l-32 466l30 118l-122 -20h-58v66h58l119 -20l-28 136v80c14.667 3.33301 29.5 5 44.5 5s28.833 -1.66699 41.5 -5v-80l-29 -136l119 20h58z" />
    <glyph glyph-name="daggerdbl" unicode="&#x2021;" 
d="M58 45v66h58l123 -20l-31 171l31 173l-122 -20h-58v66h58l119 -20l-28 136v80c14.667 3.33301 29.5 5 44.5 5s28.833 -1.66699 41.5 -5v-80l-29 -136l119 20h58v-66h-58l-123 20l31 -173l-31 -171l122 20h58v-66h-58l-119 20l28 -136v-80
c-14.667 -3.33301 -29.5 -5 -44.5 -5s-28.833 1.66699 -41.5 5v80l29 136l-119 -20h-58z" />
    <glyph glyph-name="bullet" unicode="&#x2022;" horiz-adv-x="350" 
d="M310 331c0 -37.333 -13.167 -69.168 -39.5 -95.501s-58.166 -39.5 -95.499 -39.5s-69.166 13.167 -95.499 39.5s-39.5 58.333 -39.5 96s13.167 69.5 39.5 95.5s58.166 39 95.499 39s69.166 -13.167 95.499 -39.5s39.5 -58.166 39.5 -95.499z" />
    <glyph glyph-name="ellipsis" unicode="&#x2026;" horiz-adv-x="750" 
d="M70 44c0 15.333 5.33301 28.5 16 39.5s23.667 16.5 39 16.5s28.5 -5.5 39.5 -16.5s16.5 -24.167 16.5 -39.5s-5.5 -28.333 -16.5 -39s-24.167 -16 -39.5 -16s-28.333 5.33301 -39 16s-16 23.667 -16 39zM320 44c0 15.333 5.33301 28.5 16 39.5s23.667 16.5 39 16.5
s28.5 -5.5 39.5 -16.5s16.5 -24.167 16.5 -39.5s-5.5 -28.333 -16.5 -39s-24.167 -16 -39.5 -16s-28.333 5.33301 -39 16s-16 23.667 -16 39zM570 44c0 15.333 5.33301 28.5 16 39.5s23.667 16.5 39 16.5s28.5 -5.5 39.5 -16.5s16.5 -24.167 16.5 -39.5
s-5.5 -28.333 -16.5 -39s-24.167 -16 -39.5 -16s-28.333 5.33301 -39 16s-16 23.667 -16 39z" />
    <glyph glyph-name="perthousand" unicode="&#x2030;" horiz-adv-x="1149" 
d="M90 633c33.333 34 70.001 51 110.001 51s73 -16.667 99 -50s39 -82 39 -146s-16.5 -112.833 -49.5 -146.5s-69.833 -50.5 -110.5 -50.5s-73.834 16.333 -99.501 49s-38.5 81.167 -38.5 145.5s16.667 113.5 50 147.5zM242.001 592.5c-15.333 30.333 -34.5 45.5 -57.5 45.5
s-41.167 -13.667 -54.5 -41s-20 -63.166 -20 -107.499s7.5 -81.333 22.5 -111s33.167 -44.5 54.5 -44.5c52 0 78 50.333 78 151c0 41.333 -7.66699 77.166 -23 107.499zM511.001 332c33.333 34 70.001 51 110.001 51s73 -16.667 99 -50s39 -82 39 -146
s-16.5 -112.833 -49.5 -146.5s-69.833 -50.5 -110.5 -50.5s-73.834 16.333 -99.501 49s-38.5 81.167 -38.5 145.5s16.667 113.5 50 147.5zM663.002 291.5c-15.333 30.333 -34.5 45.5 -57.5 45.5s-41.167 -13.667 -54.5 -41s-20 -63.166 -20 -107.499s7.5 -81.333 22.5 -111
s33.167 -44.5 54.5 -44.5c52 0 78 50.333 78 151c0 41.333 -7.66699 77.166 -23 107.499zM861.002 332c33.333 34 70.001 51 110.001 51s73 -16.667 99 -50s39 -82 39 -146s-16.5 -112.833 -49.5 -146.5s-69.833 -50.5 -110.5 -50.5s-73.834 16.333 -99.501 49
s-38.5 81.167 -38.5 145.5s16.667 113.5 50 147.5zM1013 291.5c-15.333 30.333 -34.5 45.5 -57.5 45.5s-41.167 -13.667 -54.5 -41s-20 -63.166 -20 -107.499s7.5 -81.333 22.5 -111s33.167 -44.5 54.5 -44.5c52 0 78 50.333 78 151c0 41.333 -7.66699 77.166 -23 107.499z
M599.003 677l-350 -691h-49l353 691h46z" />
    <glyph glyph-name="guilsinglleft" unicode="&#x2039;" horiz-adv-x="333" 
d="M63 227l211 189c6.66699 0 10 -3.66699 10 -11l-128 -180l129 -181c0 -7.33301 -3.66699 -11 -11 -11z" />
    <glyph glyph-name="guilsinglright" unicode="&#x203a;" horiz-adv-x="333" 
d="M270 221l-211 -189c-6.66699 0 -10 3.66699 -10 11l128 180l-129 181c0 7.33301 3.66699 11 11 11z" />
    <glyph glyph-name="fraction" unicode="&#x2044;" horiz-adv-x="799" 
d="M599 677l-350 -691h-49l353 691h46z" />
    <glyph glyph-name="Euro" unicode="&#x20ac;" 
d="M70 326l1.00098 34h-53v38h57c6.66699 48 20.667 91 42 129s45.666 67.333 72.999 88c56 41.333 108.667 62 158 62s90 -10 122 -30l-10 -66c-70 36.667 -119.667 55 -149 55c-36.667 -12.667 -68.667 -39.834 -96 -81.501s-44 -93.834 -50 -156.501h216v-38h-218v-8
c0 -28.667 1 -55 3 -79h215v-39h-210c12 -73.333 34.167 -127.166 66.5 -161.499s70.833 -51.5 115.5 -51.5c56.667 0 99.667 18 129 54v-55c-42 -22 -85.667 -33 -131 -33s-85.333 8 -120 24s-66.5 43.167 -95.5 81.5s-48.5 85.5 -58.5 141.5h-59v39h54
c-1.33301 22.667 -2 40.334 -2 53.001z" />
    <glyph glyph-name="trademark" unicode="&#x2122;" horiz-adv-x="980" 
d="M249 280h-75v392c-10 2.66699 -21.333 4 -34 4l-94 -23l-5 62h342l-4 -62l-94 23c-13.333 0 -25.333 -1.33301 -36 -4v-392zM647 401l137 314h76l23 -435h-78l-18 341l-152 -341h-16l-151 325l-16 -325h-42l24 435h70z" />
    <glyph glyph-name="Omega" unicode="&#x2126;" horiz-adv-x="725" 
d="M651 0l-191.997 0.00195312v131c31.333 24 55.166 58.167 71.499 102.5s24.5 90.333 24.5 138s-6.16699 90.667 -18.5 129s-33.333 70 -63 95s-66.334 37.5 -110.001 37.5s-80.834 -14.333 -111.501 -43c-54.667 -52.667 -82 -126.667 -82 -222
c0 -120 32.333 -200.667 97 -242v-126h-192v64l135 -13v52c-45.333 20.667 -81 52.167 -107 94.5s-39 90.833 -39 145.5s6.83301 100.667 20.5 138s31.5 67.666 53.5 90.999s47.333 43 76 59c52 28.667 110.333 43 175 43c78.667 0 143.667 -25 195 -75s77 -120 77 -210
c0 -122.667 -48.333 -211.334 -145 -266.001v-72l135 13v-64z" />
    <glyph glyph-name="partialdiff" unicode="&#x2202;" 
d="M227.5 455c23.667 6 46.1641 8.99902 67.4971 8.99902s43 -3.33301 65 -10c-27.333 90.667 -68.666 146.667 -123.999 168c-35.333 0 -86.666 -10.667 -153.999 -32l-20 64c48 15.333 93 23 135 23s81.167 -13 117.5 -39s65.5 -59 87.5 -99
c46 -83.333 69 -168.333 69 -255c0 -42.667 -6.33301 -81.5 -19 -116.5s-29 -63.333 -49 -85s-43 -39.834 -69 -54.501c-46.667 -26.667 -95 -40 -145 -40s-91.167 15.833 -123.5 47.5s-48.5 75.834 -48.5 132.501c0 42.667 6.33301 81.5 19 116.5s29 63.333 49 85
s42.833 39.834 68.5 54.501s50.334 25 74.001 31zM134.497 61.499c17 -26.333 41.833 -39.499 74.5 -39.499s60.167 9.5 82.5 28.5s39.5 42.833 51.5 71.5c24 57.333 36 111 36 161c0 95.333 -40.333 143 -121 143c-49.333 -18 -86.5 -51.333 -111.5 -100
s-37.5 -98.334 -37.5 -149.001s8.5 -89.167 25.5 -115.5z" />
    <glyph glyph-name="Delta" unicode="&#x2206;" horiz-adv-x="629" 
d="M589 0h-549l267 678h15zM287 502l-172 -448h344z" />
    <glyph glyph-name="product" unicode="&#x220f;" horiz-adv-x="627" 
d="M90 662h447v-762h-97v708h-253v-708h-97v762z" />
    <glyph glyph-name="summation" unicode="&#x2211;" horiz-adv-x="600" 
d="M520 -100h-439l233 367l-223 395h419v-54h-283l175 -308l-221 -346h339v-54z" />
    <glyph glyph-name="minus" unicode="&#x2212;" horiz-adv-x="564" 
d="M505 224h-446v58h446v-58z" />
    <glyph glyph-name="radical" unicode="&#x221a;" horiz-adv-x="550" 
d="M636 683v-54h-143l-233 -729h-32l-178 452h109l104 -276l194 607h179z" />
    <glyph glyph-name="infinity" unicode="&#x221e;" horiz-adv-x="869" 
d="M495 376c39.333 50 88.168 75 146.501 75s102.5 -19.667 132.5 -59s45 -85.666 45 -138.999s-15 -99.666 -45 -138.999s-72 -59 -126 -59c-64 0 -115.333 24.667 -154 74l-60 75l-59 -75c-38.667 -49.333 -90 -74 -154 -74c-54 0 -96 19.667 -126 59
s-45 85.666 -45 138.999s15 99.666 45 138.999s74.167 59 132.5 59s107.166 -25 146.499 -75l60 -75zM328.002 339c-30 36 -64.167 54 -102.5 54s-67.5 -13.833 -87.5 -41.5s-30 -60.5 -30 -98.5s10 -70.833 30 -98.5s50 -41.5 90 -41.5s73.667 17.333 101 52l71 88z
M540.002 165c27.333 -34.667 61 -52 101 -52s70 13.833 90 41.5s30 60.5 30 98.5s-10 70.833 -30 98.5s-49.167 41.5 -87.5 41.5s-72.5 -18 -102.5 -54l-72 -86z" />
    <glyph glyph-name="integral" unicode="&#x222b;" horiz-adv-x="339" 
d="M212 521v-429c0 -69.333 -15.333 -120.833 -46 -154.5s-70.667 -50.5 -120 -50.5c-22 0 -47.333 5 -76 15l8 39c22.667 -5.33301 44.667 -8 66 -8c30.667 0 52.167 11 64.5 33s18.5 47.667 18.5 77v429c0 69.333 15.333 120.833 46 154.5s70.667 50.5 120 50.5
c22 0 47.333 -5 76 -15l-8 -39c-22.667 5.33301 -44.667 8 -66 8c-30.667 0 -52.167 -11 -64.5 -33s-18.5 -47.667 -18.5 -77z" />
    <glyph glyph-name="approxequal" unicode="&#x2248;" horiz-adv-x="564" 
d="M505 312c-32.667 16 -64.667 24 -96 24s-73 -8.66699 -125 -26s-95.333 -26 -130 -26s-66.334 9.33301 -95.001 28v59c28.667 -18 58.834 -27 90.501 -27s73.5 8.5 125.5 25.5s94.5 25.5 127.5 25.5s67.167 -8 102.5 -24v-59zM505 135c-32 18 -64 27 -96 27
s-73.667 -9.16699 -125 -27.5s-94.5 -27.5 -129.5 -27.5s-66.833 9.33301 -95.5 28v59c29.333 -18.667 59.833 -28 91.5 -28s73 9.16699 124 27.5s93.667 27.5 128 27.5s68.5 -9 102.5 -27v-59z" />
    <glyph glyph-name="notequal" unicode="&#x2260;" horiz-adv-x="564" 
d="M505 371v-58h-174l-39 -119h213v-59h-233l-61 -187h-60l62 187h-154v59h173l39 119h-212v58h232l63 190h59l-63 -190h155z" />
    <glyph glyph-name="lessequal" unicode="&#x2264;" horiz-adv-x="564" 
d="M507 158v-60l-450 204v54l450 204v-60l-377 -171zM505 0h-446v58h446v-58z" />
    <glyph glyph-name="greaterequal" unicode="&#x2265;" horiz-adv-x="564" 
d="M57 158l377 171l-377 171v60l450 -204v-54l-450 -204v60zM505 0h-446v58h446v-58z" />
    <glyph glyph-name="lozenge" unicode="&#x25ca;" horiz-adv-x="589" 
d="M302 678l237 -439l-237 -439h-15l-237 439l237 439h15zM294 593l-187 -354l187 -354l188 354z" />
    <glyph glyph-name="apple" unicode="&#xf8ff;" horiz-adv-x="923" 
d="M589 -89l-22.999 0.996094c-9.33301 0 -19.833 -4 -31.5 -12s-20.5 -12 -26.5 -12l-46 10c-5.33301 0 -13.166 -2 -23.499 -6s-18.333 -6 -24 -6s-13.834 4.16699 -24.501 12.5s-20.334 12.5 -29.001 12.5l-24 -2c-10 0 -21 5.66699 -33 17l-18 19
c-8 4 -16.333 6.33301 -25 7s-16 2.83398 -22 6.50098s-11.333 11.334 -16 23.001s-8.83398 19 -12.501 22s-10.167 6.33301 -19.5 10s-16 8.5 -20 14.5c-3.33301 6 -5.66602 13.833 -6.99902 23.5s-3.33301 16.667 -6 21s-7.33398 8.83301 -14.001 13.5
c-14.667 12 -22 24.667 -22 38l3 25c0 6 -4.16699 14.833 -12.5 26.5s-12.5 20.5 -12.5 26.5s2 13.833 6 23.5s6 17.334 6 23.001s-2 12.834 -6 21.501s-6 16 -6 22s4.16699 15.833 12.5 29.5s12.5 23.5 12.5 29.5l-1 25c0 10 5.5 19.833 16.5 29.5s17.333 16.167 19 19.5
s3.16699 10.333 4.5 21s3.33301 18 6 22s9.16699 8 19.5 12s17.166 7.66699 20.499 11s7.33301 10.166 12 20.499s9.16699 17.333 13.5 21s12.833 6.83398 25.5 9.50098s20.834 5 24.501 7s10.5 8.66699 20.5 20s19.667 17.333 29 18l26 -2
c8.66699 0 18.167 3.83301 28.5 11.5s19.166 11.5 26.499 11.5l44 -12l45 12c8.66699 0 18.334 -4.16699 29.001 -12.5s20 -12.5 28 -12.5l28 3c10.667 0 20.334 -5.5 29.001 -16.5s15.167 -17.667 19.5 -20s11.5 -4.5 21.5 -6.5s17.5 -4.66699 22.5 -8
s9.16699 -9.66602 12.5 -18.999s6.83301 -15.666 10.5 -18.999s12.167 -8.5 25.5 -15.5s21.5 -13.167 24.5 -18.5s4.66699 -13.333 5 -24s1.33301 -17.5 3 -20.5s8.16699 -9.33301 19.5 -19s17 -19.834 17 -30.501l-1 -25c0 -8.66699 4 -19.167 12 -31.5s12 -21.5 12 -27.5
s-1.83301 -13.333 -5.5 -22s-5.5 -15.334 -5.5 -20.001s1.83301 -11.834 5.5 -21.501s5.33398 -17.167 5.00098 -22.5s-4.5 -12.166 -12.5 -20.499s-12 -17.166 -12 -26.499l2 -32c0 -10.667 -5.33301 -20.334 -16 -29.001s-16.834 -14.667 -18.501 -18s-4 -11.333 -7 -24
s-6.33301 -21.167 -10 -25.5s-9.66699 -8.33301 -18 -12s-14.166 -7.16699 -17.499 -10.5s-8 -10.5 -14 -21.5s-11.333 -18.167 -16 -21.5s-12.834 -6.5 -24.501 -9.5s-19.167 -5.5 -22.5 -7.5s-9.5 -7.5 -18.5 -16.5s-18.5 -13.5 -28.5 -13.5zM462.001 -6.00391
l32.9932 -6.99707c4 0 9.66699 2.33301 17 7c10 6.66699 19 10 27 10l15 -1c8 0 15 3.33301 21 10s10.167 10.667 12.5 12s7.83301 3.16602 16.5 5.49902s14.834 4.83301 18.501 7.5s7.66699 7.83398 12 15.501s7.66602 12.667 9.99902 15s6.5 4.83301 12.5 7.5
s10.333 5.5 13 8.5s5 9.16699 7 18.5s3.83301 15.333 5.5 18s6.16699 7 13.5 13s11 13.667 11 23l-1 20c0 7.33301 2.83301 14.166 8.5 20.499s8.83398 11.5 9.50098 15.5l-8 32l8 28c0 5.33301 -3 12.666 -9 21.999s-9 17 -9 23l1 17c0 8 -4 15.333 -12 22
s-12.667 11.334 -14 14.001s-2.16602 7.83398 -2.49902 15.501s-1.5 13.334 -3.5 17.001s-7.83301 8 -17.5 13s-15.834 8.83301 -18.501 11.5s-5.33398 7.33398 -8.00098 14.001s-5.66699 11.334 -9 14.001s-8.66602 4.66699 -15.999 6s-12.666 2.83301 -15.999 4.5
s-8 6.5 -14 14.5s-13 12 -21 12l-20 -2c-6 0 -12.667 3 -20 9s-14.333 9 -21 9l-33 -9l-32 9c-5.33301 0 -12 -2.83301 -20 -8.5s-15.333 -8.5 -22 -8.5l-17 1c-7.33301 0 -14.5 -4.16699 -21.5 -12.5s-12 -13.333 -15 -15s-8.83301 -3.33398 -17.5 -5.00098
s-14.667 -3.83398 -18 -6.50098s-6.66602 -7.66699 -9.99902 -15s-6.33301 -12.333 -9 -15s-7.5 -5.33398 -14.5 -8.00098s-11.833 -5.66699 -14.5 -9c-1.33301 -2.66699 -2.66602 -7.83398 -3.99902 -15.501s-2.66602 -12.834 -3.99902 -15.501s-6 -7.5 -14 -14.5
s-12 -14.167 -12 -21.5l1 -16c0 -5.33301 -2.83301 -13 -8.5 -23s-8.5 -17.667 -8.5 -23l8 -30l-8 -33c0 -5.33301 2.83301 -12.166 8.5 -20.499s8.5 -15.166 8.5 -20.499l-2 -16c0 -7.33301 4.16699 -14.833 12.5 -22.5s13.166 -12.834 14.499 -15.501s2.5 -7.5 3.5 -14.5
s2.83301 -12.667 5.5 -17s7.33398 -7.83301 14.001 -10.5s11.334 -5.16699 14.001 -7.5s5.83398 -7.83301 9.50098 -16.5s7.5 -14.334 11.5 -17.001s9.16699 -4 15.5 -4s11.5 -1 15.5 -3s9.83301 -7.16699 17.5 -15.5s15.167 -12.5 22.5 -12.5l15 1
c6.66699 0 14 -2.83301 22 -8.5s14 -8.83398 18 -9.50098zM461.994 416.999c46.667 0 86.667 -16.5 120 -49.5s50 -73.167 50 -120.5s-16.667 -87.5 -50 -120.5s-73.333 -49.5 -120 -49.5s-86.667 16.5 -120 49.5s-50 73.167 -50 120.5s16.667 87.5 50 120.5
s73.333 49.5 120 49.5zM504.994 291.999h52v68h-191v-68h54v-175h85v175z" />
    <glyph glyph-name=".null" horiz-adv-x="0" 
 />
    <glyph glyph-name="nonmarkingreturn" horiz-adv-x="333" 
 />
    </font>
</defs>
</svg>
